<svg xmlns="http://www.w3.org/2000/svg" width="37.893" height="30.314" viewBox="0 0 37.893 30.314">
  <path id="Icon_awesome-business-time" data-name="Icon awesome-business-time" d="M29.367,13.263a8.526,8.526,0,1,0,8.526,8.526A8.521,8.521,0,0,0,29.367,13.263Zm3.789,8.9a.577.577,0,0,1-.575.575H29a.577.577,0,0,1-.575-.575V17.627A.577.577,0,0,1,29,17.052h.744a.577.577,0,0,1,.575.575v3.214h2.267a.577.577,0,0,1,.575.575ZM29.367,11.368c.32,0,.635.02.947.048V8.526a2.914,2.914,0,0,0-2.842-2.842H22.736V2.842A2.914,2.914,0,0,0,19.894,0H10.421A2.914,2.914,0,0,0,7.579,2.842V5.684H2.842A2.914,2.914,0,0,0,0,8.526v4.737H23.394A10.357,10.357,0,0,1,29.367,11.368ZM18.947,5.684H11.368V3.789h7.579Zm.4,13.263H12.315A.947.947,0,0,1,11.368,18V15.157H0v8.526a2.914,2.914,0,0,0,2.842,2.842H20.1a10.281,10.281,0,0,1-.747-7.579Z" fill="#17479d"/>
</svg>
