<svg xmlns="http://www.w3.org/2000/svg" width="88" height="88" viewBox="0 0 88 88">
  <g id="Grupo_6680" data-name="Grupo 6680" transform="translate(-351 -3325)">
    <circle id="Elipse_758" data-name="Elipse 758" cx="44" cy="44" r="44" transform="translate(351 3325)" fill="#17479d"/>
    <path id="Icon_material-remove-red-eye" data-name="Icon material-remove-red-eye" d="M25.2,6.75A25.485,25.485,0,0,0,1.5,22.911a25.463,25.463,0,0,0,47.406,0A25.485,25.485,0,0,0,25.2,6.75Zm0,26.935A10.774,10.774,0,1,1,35.977,22.911,10.778,10.778,0,0,1,25.2,33.685Zm0-17.239a6.464,6.464,0,1,0,6.464,6.464A6.456,6.456,0,0,0,25.2,16.447Z" transform="translate(369.797 3346.089)" fill="#fff"/>
  </g>
</svg>
