<svg xmlns="http://www.w3.org/2000/svg" width="88" height="88" viewBox="0 0 88 88">
  <g id="Grupo_7928" data-name="Grupo 7928" transform="translate(-260 -2262)">
    <g id="Grupo_7579" data-name="Grupo 7579" transform="translate(-91 -1063)">
      <circle id="Elipse_758" data-name="Elipse 758" cx="44" cy="44" r="44" transform="translate(351 3325)" fill="#17479d"/>
      <path id="Icon_material-remove-red-eye" data-name="Icon material-remove-red-eye" d="M25.2,6.75A25.485,25.485,0,0,0,1.5,22.911a25.463,25.463,0,0,0,47.406,0A25.485,25.485,0,0,0,25.2,6.75Zm0,26.935A10.774,10.774,0,1,1,35.977,22.911,10.778,10.778,0,0,1,25.2,33.685Zm0-17.239a6.464,6.464,0,1,0,6.464,6.464A6.456,6.456,0,0,0,25.2,16.447Z" transform="translate(369.797 3346.089)" fill="#17479d"/>
    </g>
    <g id="Grupo_7927" data-name="Grupo 7927" transform="translate(1379.76 2858.267)">
      <path id="Trazado_7248" data-name="Trazado 7248" d="M-948.444-357.906c-.361-.02-.678-.021-.99-.059a1.712,1.712,0,0,1-1.7-1.851c-.017-2.417-.054-4.835.02-7.25a6.22,6.22,0,0,1,6.265-6.17c2.669-.053,5.34-.01,8.077-.01a19.3,19.3,0,0,1,.261-2.147,6.1,6.1,0,0,1,5.714-5.04,59.047,59.047,0,0,1,8.111-.006,6.322,6.322,0,0,1,5.978,6.308c.016.254.033.507.058.881h1.056c2.481,0,4.963-.021,7.444.006a6,6,0,0,1,6.257,5.7c.189,2.661.088,5.346.062,8.019a1.544,1.544,0,0,1-1.539,1.563c-.284.034-.572.032-.973.053v1.056c0,3.77.014,7.541,0,11.311-.016,3.3-1.745,5.863-4.55,6.668a8.439,8.439,0,0,1-2.29.265c-10.118.017-20.238-.057-30.355.045a6.574,6.574,0,0,1-6.857-6.849q0-5.8,0-11.6C-948.4-357.3-948.428-357.58-948.444-357.906Zm28.557.017c0,.691.017,1.329,0,1.967-.044,1.388-.641,2.009-2.028,2.019q-4.834.032-9.669,0c-1.3-.01-1.882-.621-1.918-1.91-.019-.694,0-1.388,0-2.059h-11.456c0,4.161-.008,8.252,0,12.342.006,2.5,1.031,3.518,3.521,3.518h30.069c2.541,0,3.588-1.032,3.592-3.561q.01-5.7,0-11.409c0-.305,0-.61,0-.906Zm14.665-3.524c0-1.745.011-3.385,0-5.025-.02-2.463-1.016-3.441-3.484-3.441q-17.694,0-35.387,0a6.777,6.777,0,0,0-1.344.1,2.431,2.431,0,0,0-2.138,2.095c-.163,2.065-.047,4.152-.047,6.232h14.115c0-.685-.016-1.294,0-1.9.043-1.376.662-2.04,2.015-2.051q4.737-.038,9.475,0c1.453.012,2.081.686,2.126,2.162.018.6,0,1.2,0,1.826ZM-920.24-373.3a2.986,2.986,0,0,0-2.917-3.781c-2.416-.02-4.833-.03-7.249,0a2.957,2.957,0,0,0-2.733,3.776Zm-3.083,11.364h-6.691v4.547h6.691Z" transform="translate(-149.605 -192.693)" fill="#fff" stroke="#fff" stroke-width="1"/>
    </g>
  </g>
</svg>
