<svg xmlns="http://www.w3.org/2000/svg" width="123.28" height="76" viewBox="0 0 123.28 76">
  <g id="Grupo_7901" data-name="Grupo 7901" transform="translate(499.593 -394.667)">
    <path id="Trazado_7102" data-name="Trazado 7102" d="M-499.593,444.228a2.262,2.262,0,0,1,1.945-1.248c.974-.531,1.972-.083,2.927.02,3.292.356,6.577.79,9.862,1.21,2.873.367,3.909-.372,4.349-3.184a4.88,4.88,0,0,0,.081-.713c.525-4.9,1.213-9.775,1.789-14.666.864-7.359,1.844-14.7,2.7-22.062a2.707,2.707,0,0,0-2.56-3.268c-3.242-.519-6.513-.843-9.768-1.27-1.289-.169-2.665.009-3.829-.786-1.316-.627-1.762-1.373-1.429-2.389.3-.931,1.183-1.33,2.472-1.168,4.291.539,8.579,1.092,12.875,1.591a6.672,6.672,0,0,1,6.2,7.633c-.074.73.011,1.007.794,1.024a38.471,38.471,0,0,1,3.956.267,1.289,1.289,0,0,0,1.536-.921c.453-1.021.984-2.009,1.509-3a6.86,6.86,0,0,1,8.351-3.669q1.623.428,3.239.882a2.161,2.161,0,0,1,1.744,1.467c.1,2.036-.691,2.73-2.745,2.348-1.1-.206-2.157-.629-3.256-.862a3.073,3.073,0,0,0-3.836,1.67c-.794,1.348-1.466,2.766-2.125,4.183a2.953,2.953,0,0,1-3.029,1.875c-1.77-.016-3.512-.324-5.282-.3-.807.009-1.134.253-1.237,1.062q-.937,7.336-1.831,14.679c-.6,4.936-1.216,9.869-1.827,14.8-.17,1.375-.081,1.534,1.273,1.722,1.311.182,2.644.037,3.957.259a2.113,2.113,0,0,0,1.435-.531,6.635,6.635,0,0,1,9.444,2.059,1.411,1.411,0,0,0,1.471.761,7.612,7.612,0,0,1,4.344.615,6.133,6.133,0,0,1,2.63,2.558,1.5,1.5,0,0,0,1.628.91,6.428,6.428,0,0,1,6.93,4.263,1.292,1.292,0,0,0,1.313.8,6.651,6.651,0,0,1,6.338,5.449,7.491,7.491,0,0,1-1.889,6.106c-.906,1.056-1.512,2.37-2.727,3.159a7.509,7.509,0,0,1-4.1,2.939,6.188,6.188,0,0,1-7.486-4.364c-.184-.639-.368-.935-1.167-.924a6.017,6.017,0,0,1-6.015-4.574c-.166-.615-.371-.8-1.035-.807a6.2,6.2,0,0,1-6.182-4.731c-.117-.408-.16-.691-.721-.74-5.378-.465-7.646-3.833-6.078-9.1-1.438-.1-2.859-.177-4.275-.313-.548-.053-.773.258-1.044.621a6.487,6.487,0,0,1-6.3,2.713c-4.46-.516-8.911-1.107-13.369-1.64a2.91,2.91,0,0,1-1.952-1.2Z" transform="translate(0 0)" fill="#17479d"/>
    <path id="Trazado_7103" data-name="Trazado 7103" d="M-438.035,457.86c-1.017-3.616-3.1-5.239-6.761-5.216-.512,0-.645-.158-.8-.617-1.207-3.474-3.775-4.968-7.494-4.369a.641.641,0,0,1-.818-.418c-1.756-3.342-3.938-4.4-7.565-3.668-.477.1-.72.029-.925-.44a6.273,6.273,0,0,0-9.712-2.235,1.355,1.355,0,0,1-1.116.292c-1.64-.129-3.278-.3-4.921-.345-.855-.022-.958-.363-.866-1.086.522-4.1,1.007-8.2,1.515-12.295.77-6.205,1.566-12.408,2.3-18.618.092-.782.283-1,1.085-.924,1.956.186,3.926.222,5.883.391a2.178,2.178,0,0,0,2.391-1.383c.711-1.479,1.477-2.931,2.243-4.384,1.039-1.976,2.292-2.531,4.455-1.972,1.008.261,2,.586,3,.849,1.8.471,2.63-.151,2.749-2.028.451,1.72,2,1.324,3.174,1.648.312.4-.038.676-.2.955-4.1,6.98-8.145,14-12.22,21-1.885,3.239-.749,6.259,2.811,7.412a12.74,12.74,0,0,0,14.333-4.332c1-1.253,1.941-2.553,2.94-3.808a1.2,1.2,0,0,1,1.939-.225,16.9,16.9,0,0,0,8.151,3.6,4,4,0,0,1,2.113,1.039c6.382,5.484,12.771,10.959,19.1,16.5.655.572,1.49.98,1.8,1.883a1.836,1.836,0,0,1-.272,1.5c-1.066,1.563-2.177,3.09-4.183,3.553-1.5-.363-2.266-1.72-3.419-2.558-.8-.586-1.534-1.289-2.314-1.916a1.367,1.367,0,0,0-2.043.051,1.454,1.454,0,0,0,.118,2.138c.544.637,1.313,1.061,1.714,1.831-.025.158.082-.021.011.117-1.079,2.109-2.4,3.987-4.725,4.894-1.607-.836-2.767-2.234-4.172-3.326a8.534,8.534,0,0,0-1.037-.8,1.372,1.372,0,0,0-1.92.315,1.439,1.439,0,0,0,.067,1.87c.374.539,1.128.807,1.146,1.6-1.422,1.9-2.713,3.919-4.858,5.129a4.925,4.925,0,0,1-.99.412c-1.316.4-1.611.185-1.632-1.193A1.7,1.7,0,0,0-438.035,457.86Z" transform="translate(2.538 0.584)" fill="#c4e1f7"/>
    <path id="Trazado_7104" data-name="Trazado 7104" d="M-436.462,398.494l3.54-.415c1.08,1.538,2.614,1.448,4.2,1.175a7.006,7.006,0,0,1,4.745.884c3,1.684,6.022,3.346,8.987,5.1a6.585,6.585,0,0,0,4.668.962c2.5-.407,2.552-.233,2.814,2.3.507,4.9,1.213,9.773,1.788,14.664.336,2.863.677,5.724,1.057,8.581a2.812,2.812,0,0,1-.063,1.192c-.272.661-.862.758-1.47.835-1.425.179-2.849.362-4.278.484a5.99,5.99,0,0,0-3.7,1.458,4.76,4.76,0,0,1-1.458,1.03,1.393,1.393,0,0,1-1.282-.5c-3.437-3.01-6.91-5.979-10.378-8.953-1.78-1.526-1.731-1.608.444-2.568a20.2,20.2,0,0,0,6.975-5.215,18.091,18.091,0,0,0,1.434-1.619c.47-.681.67-1.457-.024-2.068a1.471,1.471,0,0,0-2.08.112c-1.246,1.127-2.257,2.473-3.557,3.571-5.971,5.04-12.418,4.237-17.82-.549-.12-.106-.228-.226-.344-.337-1.354-1.3-2.061-1.29-3.271.153-1.494,1.782-2.865,3.664-4.279,5.51a9.78,9.78,0,0,1-11.276,3.4c-1.408-.5-1.783-1.341-1.108-2.718.919-1.873,2.055-3.628,3.1-5.43,2.88-4.958,5.845-9.87,8.594-14.9,1.564-2.863,3.914-3.949,6.988-3.988,1.282-.017,2.547-.284,3.83-.318A3.306,3.306,0,0,0-436.462,398.494Z" transform="translate(4.578 0.421)" fill="#85c1ee"/>
    <path id="Trazado_7105" data-name="Trazado 7105" d="M-436.089,398.915a1.99,1.99,0,0,1-2.1,2.005c-2.237.177-4.466.456-6.7.637a5.291,5.291,0,0,0-4.392,2.746q-6.17,10.589-12.313,21.193c-.672,1.161-.375,1.847.9,2.3a9.413,9.413,0,0,0,10.806-3.053c1.517-1.866,2.937-3.81,4.412-5.71,1.316-1.7,2.193-1.745,3.735-.28a14.009,14.009,0,0,0,8.912,4.263c3.987.243,7.086-1.649,9.861-4.232.819-.763,1.539-1.632,2.31-2.448.935-.99,2.052-1.14,2.84-.39.754.717.692,1.8-.158,2.783-3.431,3.951-5.283,5.315-10.184,7.451.907.791,1.755,1.545,2.618,2.282q5.025,4.3,10.058,8.584a8.229,8.229,0,0,1,2.668,1.976,1.27,1.27,0,0,0,1.607.3,4.637,4.637,0,0,1,2.243-.244c1.2-.013,2.4.017,3.6-.01,1.081-.025,1.222-.221,1.1-1.324a15.136,15.136,0,0,1-.289-4.386c-.5-4.293-.99-8.587-1.51-12.878-.525-4.331-1.1-8.657-1.605-12.99-.083-.712-.3-.872-.968-.728-.78.167-1.586.209-2.377.333a3.861,3.861,0,0,1-2.637-.517c-3.259-1.875-6.567-3.667-9.816-5.56a7.259,7.259,0,0,0-5.06-.988c-.551.094-1.117.087-1.674.145a1.919,1.919,0,0,1-2.344-1.68c.117-1.25.891-1.74,2.057-1.939a13.454,13.454,0,0,1,10.079,2.005c2.534,1.663,5.291,2.982,7.916,4.511,1.39.81,2.719.063,4.072-.009.393-.02.228-.447.262-.7a6.718,6.718,0,0,1,6.247-6.078c4.294-.5,8.584-1.052,12.874-1.592,1.289-.162,2.167.236,2.474,1.166.335,1.015-.11,1.761-1.425,2.391a2.953,2.953,0,0,1-1.8.563c-3.778.434-7.559.858-11.322,1.413-2.566.379-3.272,1.4-2.963,3.938q2.078,17.112,4.2,34.219a16.332,16.332,0,0,1,.216,1.666,7.546,7.546,0,0,0,.309,2.248,2.9,2.9,0,0,0,3.389,2c2.735-.34,5.47-.668,8.2-1.031,1.425-.189,2.856-.326,4.283-.5a1.3,1.3,0,0,1,1.027.2c1.311.225,1.958.851,1.929,1.864s-.746,1.632-2.038,1.793q-6.562.816-13.123,1.635a6.641,6.641,0,0,1-7.408-4.583c-.145-.424-.23-.715-.763-.706-1.505.027-3.011.01-4.747.01.713.68,1.277,1.164,1.779,1.706a5.244,5.244,0,0,1,1.264,5.566c-1.155,3.262-4.869,6.673-9.418,5.033a.919.919,0,0,0-1.2.378,18.771,18.771,0,0,1-3.045,3.235,6.565,6.565,0,0,1-6.152.981,1.072,1.072,0,0,0-1.406.389c-.669.849-1.4,1.655-2.143,2.438a6.646,6.646,0,0,1-4.586,2.069c-1.926.116-2.66-.55-2.622-2.457.182-1.279,1.279-1.447,2.166-1.462,2.2-.034,2.984-1.783,4.133-3.1.326-.373-.087-.624-.342-.879-.7-.7-1.637-1.155-2.087-2.1-.253-.249-.5-.509-.762-.747-1.1-.992-1.3-2.055-.547-2.9.784-.874,1.765-.816,2.95.2,1.246,1.065,2.48,2.144,3.722,3.212.209.18.439.336.659.5a4.69,4.69,0,0,1,1.324.752,2.838,2.838,0,0,0,3.459-.1,19.781,19.781,0,0,0,2.082-2.318c.453-.488,0-.807-.324-1.08a6.856,6.856,0,0,1-1.994-2.038c-.593-.535-1.209-1.047-1.775-1.609a1.807,1.807,0,0,1-.233-2.575,1.731,1.731,0,0,1,2.574-.13c1.828,1.489,3.609,3.035,5.41,4.556a6.141,6.141,0,0,1,1.143.643,3.447,3.447,0,0,0,5.251-2.107,1.938,1.938,0,0,0-.547-1.861c-.457-.545-1.17-.861-1.421-1.588q-6.672-5.791-13.343-11.579c-2.607-2.257-5.231-4.491-7.828-6.758a2.8,2.8,0,0,0-1.585-.722,16.713,16.713,0,0,1-8.369-3.635c-.681-.531-1.067-.671-1.653.166a53.31,53.31,0,0,1-3.547,4.547,12.958,12.958,0,0,1-14.8,3.371c-3.055-1.284-4.018-4.345-2.27-7.371q5.162-8.942,10.37-17.857c.8-1.383,1.617-2.76,2.425-4.141,2-2.769,4.883-3.664,8.126-3.844,1.712-.094,3.418-.306,5.127-.462C-437.171,397.187-436.676,397.5-436.089,398.915Z" transform="translate(4.205)" fill="#17479d"/>
    <path id="Trazado_7106" data-name="Trazado 7106" d="M-406.683,439.742q-1.218-9.714-2.435-19.427c-.693-5.562-1.354-11.129-2.069-16.689-.316-2.449.681-3.83,3.139-4.132q6.674-.821,13.348-1.63c.519,4.365,1.026,8.731,1.561,13.093.679,5.552,1.383,11.1,2.07,16.653q.706,5.71,1.391,11.421a6.128,6.128,0,0,1-4.565.451c-.289-.488-.024-.927.128-1.375a4.841,4.841,0,0,0-2.032-5.866,4.785,4.785,0,0,0-6.062.675,4.721,4.721,0,0,0-.789,6.039c.284.5.821.919.641,1.613A3.4,3.4,0,0,1-406.683,439.742Z" transform="translate(10.912 0.395)" fill="#5c9bed"/>
    <path id="Trazado_7107" data-name="Trazado 7107" d="M-492.366,397.864c4.608.557,9.22,1.083,13.823,1.686a3.018,3.018,0,0,1,2.714,3.6c-.8,6.677-1.639,13.35-2.471,20.022q-1.048,8.4-2.112,16.8a4.067,4.067,0,0,1-4.318.474c-.228-.539.156-.9.386-1.308a4.81,4.81,0,0,0-.2-5.621,4.567,4.567,0,0,0-4.94-1.9,4.876,4.876,0,0,0-3.918,4.045,4.767,4.767,0,0,0,.207,2.239c.113.483.454.973.035,1.474a7.671,7.671,0,0,1-4.244-.356q1.181-9.6,2.364-19.2,1.274-10.317,2.556-20.632C-492.428,398.745-492.4,398.3-492.366,397.864Z" transform="translate(0.271 0.395)" fill="#78a8ff"/>
    <path id="Trazado_7108" data-name="Trazado 7108" d="M-497.345,434.495c1.479-.233,2.91.426,4.386.226.463-.009.685.36.974.621a4.935,4.935,0,0,0,6.346.67c.3-.179.584-.434.983-.345a4.352,4.352,0,0,0,2.945.134c.458-.084.9-.233,1.356-.352a6.816,6.816,0,0,1-.434,2.582,3.1,3.1,0,0,1-3.381,1.731c-3.417-.4-6.829-.836-10.242-1.258-1.152-.143-2.3-.291-3.451-.437Q-497.6,436.28-497.345,434.495Z" transform="translate(0.214 4.913)" fill="#2975ff"/>
    <path id="Trazado_7109" data-name="Trazado 7109" d="M-394.723,434.7c1.1.68,2.176-.142,3.276-.076.394.024.837-.128,1.267-.113l.522,3.551c-4.441.554-8.884,1.1-13.322,1.667-2.372.306-3.694-.674-4.054-3.083-.07-.472-.1-.951-.152-1.426a4.7,4.7,0,0,0,4.393.694c.39-.212.679.06.99.21a4.954,4.954,0,0,0,6.293-.973C-395.281,434.932-395.1,434.647-394.723,434.7Z" transform="translate(11.414 4.921)" fill="#357fd2"/>
    <path id="Trazado_7110" data-name="Trazado 7110" d="M-434.613,448.179c.888.734,1.764,1.481,2.666,2.2.385.306.488.545.1.949-.629.664-1.2,1.384-1.807,2.071a3.116,3.116,0,0,1-2.513,1.159,2.41,2.41,0,0,0-2.32,1.162c-.748-.586-1.231-.237-1.741.4-.871,1.093-1.8,2.146-2.738,3.181a4.829,4.829,0,0,1-3.475,1.648c.755-1.029,1.455-2.1,2.276-3.077a7.745,7.745,0,0,0,2.1-6.038,1.5,1.5,0,0,1,.193.422c.194,1.671.369,1.776,1.921,1.137a7.031,7.031,0,0,0,2.922-2.4C-436.28,450.011-435.422,449.114-434.613,448.179Z" transform="translate(6.565 6.61)" fill="#85c1ee"/>
    <path id="Trazado_7111" data-name="Trazado 7111" d="M-444.761,452.656a2.626,2.626,0,0,1-.62,1.785c-1.141,1.545-2.287,3.087-3.487,4.587a2.684,2.684,0,0,1-3.813.7,2.684,2.684,0,0,1-.5-3.844c1.179-1.665,2.422-3.286,3.708-4.87a2.493,2.493,0,0,1,3.012-.847A2.515,2.515,0,0,1-444.761,452.656Z" transform="translate(5.66 6.83)" fill="#85c1ee"/>
    <path id="Trazado_7112" data-name="Trazado 7112" d="M-453.985,445.412a2.558,2.558,0,0,1,2.412,3.677,26.646,26.646,0,0,1-4.26,5.636,2.494,2.494,0,0,1-3.214.133,2.463,2.463,0,0,1-.836-3.2,32.464,32.464,0,0,1,4.258-5.642A2.145,2.145,0,0,1-453.985,445.412Z" transform="translate(4.868 6.268)" fill="#85c1ee"/>
    <path id="Trazado_7113" data-name="Trazado 7113" d="M-458.642,443.977c.029,1.8-3.182,5.986-4.638,6.35a2.459,2.459,0,0,1-2.576-.859,2.274,2.274,0,0,1-.455-2.665,18.233,18.233,0,0,1,3.44-4.572,2.306,2.306,0,0,1,2.8-.255A2.491,2.491,0,0,1-458.642,443.977Z" transform="translate(4.08 5.8)" fill="#85c1ee"/>
    <path id="Trazado_7114" data-name="Trazado 7114" d="M-470.032,445.365a2.622,2.622,0,0,1-2.613-3.686A8.525,8.525,0,0,1-470.662,439a2.466,2.466,0,0,1,2.984-.412,2.429,2.429,0,0,1,1.416,2.543,6.506,6.506,0,0,1-3.159,4.109A3.922,3.922,0,0,1-470.032,445.365Z" transform="translate(3.299 5.386)" fill="#85c1ee"/>
    <path id="Trazado_7115" data-name="Trazado 7115" d="M-426.005,444.163c.854.719,1.685,1.466,2.568,2.146.536.412.447.717.031,1.131-.4.393-.738.842-1.1,1.267-2.041,2.391-3.73,2.457-6.045.236A11.074,11.074,0,0,0-426.005,444.163Z" transform="translate(8.528 6.113)" fill="#85c1ee"/>
    <path id="Trazado_7116" data-name="Trazado 7116" d="M-416.76,440.006a2.657,2.657,0,0,1,.3.185c2.569,2.085,2.723,3,.856,5.033-1.638,1.786-3.636,1.676-5.584-.307C-418.939,443.977-417.21,442.569-416.76,440.006Z" transform="translate(9.684 5.6)" fill="#85c1ee"/>
    <path id="Trazado_7117" data-name="Trazado 7117" d="M-410.059,429.108c.235,1.743.456,3.487.71,5.228.1.682-.213.809-.809.8-1.645-.027-3.29,0-4.934-.009a2.608,2.608,0,0,0-1.927.5c-.363.33-.634.157-.926-.106-1.01-.912-2.028-1.816-3.044-2.721a12.281,12.281,0,0,0,1.1-.917c1.736-1.816,4.069-1.7,6.286-2.045C-412.414,429.652-411.11,429.962-410.059,429.108Z" transform="translate(9.709 4.254)" fill="#85c1ee"/>
    <path id="Trazado_7118" data-name="Trazado 7118" d="M-395.012,435.562c-2.419,2.878-4.865,3.247-8.068,1.215-2.187-2.577-2.353-5.3-.451-7.474a5.247,5.247,0,0,1,6.758-1.016,5.253,5.253,0,0,1,2.138,6.4C-394.75,434.981-394.885,435.27-395.012,435.562Z" transform="translate(11.703 4.054)" fill="#17479d"/>
    <path id="Trazado_7119" data-name="Trazado 7119" d="M-485.111,436.523c-3.133,2.339-5.785,2.037-8.3-.946a5.327,5.327,0,0,1,3.382-7.967,5.347,5.347,0,0,1,5.552,2.253,5.321,5.321,0,0,1-.134,5.987C-484.774,436.078-484.945,436.3-485.111,436.523Z" transform="translate(0.669 4.056)" fill="#17479d"/>
    <path id="Trazado_7120" data-name="Trazado 7120" d="M-401.619,432.236a1.719,1.719,0,0,1,1.829-1.525,1.669,1.669,0,0,1,1.485,1.85,1.593,1.593,0,0,1-1.753,1.449A1.671,1.671,0,0,1-401.619,432.236Z" transform="translate(12.1 4.451)" fill="#c4e1f7"/>
    <path id="Trazado_7121" data-name="Trazado 7121" d="M-489.254,430.692a1.712,1.712,0,0,1,1.613,1.75,1.643,1.643,0,0,1-1.755,1.573,1.709,1.709,0,0,1-1.578-1.655A1.77,1.77,0,0,1-489.254,430.692Z" transform="translate(1.065 4.45)" fill="#c4e1f7"/>
  </g>
</svg>
