<svg xmlns="http://www.w3.org/2000/svg" width="115.746" height="105.054" viewBox="0 0 115.746 105.054">
  <g id="Grupo_7898" data-name="Grupo 7898" transform="translate(340.128 -374.958)">
    <path id="Trazado_7193" data-name="Trazado 7193" d="M-290.558,455.028a1.9,1.9,0,0,1-2.428-1.06c-2.326-4.081-4.7-8.13-7.035-12.208a3.209,3.209,0,0,1,1.551-4.867,7.421,7.421,0,0,1,7.4.6v-7.359c-.328-.034-.359.306-.508.479a5.178,5.178,0,0,1-6.721,1.242q-11.053-6.33-22.06-12.739a15.09,15.09,0,0,1-6.445-7.329,8,8,0,0,0-3.644-4c-2.694-1.5-5.345-3.066-8.007-4.617-1.775-1.034-2.123-2.279-1.107-4.044q4.1-7.133,8.232-14.25c.995-1.714,2.233-2.042,3.976-1.05q4.113,2.341,8.2,4.731a8.29,8.29,0,0,0,5.3,1.076,48.894,48.894,0,0,1,5.19-.111,1.816,1.816,0,0,1,1.575,1.117c.3,1.715-.31,2.492-2.017,2.533-1.878.045-3.754.014-5.634.192a9.918,9.918,0,0,1-5.839-1.415q-3.544-1.992-7.046-4.055c-.668-.394-1.024-.325-1.426.37-2.129,3.681-4.243,7.371-6.386,11.045-.43.737-.343,1.169.439,1.622,2.313,1.339,4.646,2.642,6.946,4a10.63,10.63,0,0,1,4.473,5.089,12.625,12.625,0,0,0,5.522,6.2c3.661,2.09,7.3,4.22,10.961,6.3,3.224,1.937,6.526,3.743,9.758,5.67a3.439,3.439,0,0,0,1.692.573,1.393,1.393,0,0,0,1.375-.8,1.321,1.321,0,0,0-.175-1.48,4.038,4.038,0,0,0-1.309-1.05c-2.336-1.37-4.7-2.7-7.042-4.055a16.475,16.475,0,0,1-1.822-1.132,1.886,1.886,0,0,1-.659-2.571,1.971,1.971,0,0,1,2.747-.706c1.13.6,2.225,1.263,3.329,1.909q3.525,2.027,7.034,4.082c.672.392.887.266,1.027-.469.448-2.351.476-2.361-1.618-3.553-1.472-.838-2.92-1.719-4.4-2.541a43.566,43.566,0,0,1-3.786-2.216,1.9,1.9,0,0,1-.636-2.82,1.9,1.9,0,0,1,2.682-.516q1.914,1.069,3.811,2.174c2.352,1.4,4.77,2.7,7.105,4.132,1.16.713,2.4.449,3.611.589.217.025.315-.12.358-.336a2.218,2.218,0,0,0-1.006-2.193c-2.8-1.674-5.659-3.258-8.481-4.905-1.139-.647-2.266-1.31-3.41-1.947a3.935,3.935,0,0,1-.469-.306,2.122,2.122,0,0,1-.678-2.863,1.978,1.978,0,0,1,2.7-.513c1.235.623,2.4,1.381,3.621,2.024,2.042,1.344,4.242,2.423,6.419,3.79a4.124,4.124,0,0,1-.093-2.649,1.206,1.206,0,0,0-.754-1.547c-1.289-.7-2.55-1.449-3.828-2.173-2.214-1.289-4.467-2.507-6.65-3.846a2.581,2.581,0,0,1-1.294-1.5,1.855,1.855,0,0,1,1.784-2.332,17.267,17.267,0,0,0,3.365-.306,3.338,3.338,0,0,0,2.3-1.834c.394-.829.249-1.093-.682-1.1-2.75-.023-5.5-.006-8.246-.011a8.112,8.112,0,0,1-1.8-.085,1.579,1.579,0,0,1-1.354-1.808c.431-1.524.79-1.8,2.386-1.8q5.083,0,10.166,0c2.62.007,4.008,1.675,3.567,4.262-.429,2.522-1.55,4.054-4.236,5.682l6.449,3.743c.044-.065.115-.127.1-.157-1.287-3.521-.5-5.657,2.767-7.536,7.26-4.174,14.5-8.393,21.787-12.512a14.238,14.238,0,0,1,9.047-1.689,7.868,7.868,0,0,0,5.193-1.069c2.714-1.607,5.454-3.17,8.191-4.741,1.695-.972,3-.635,3.981,1.05q4.129,7.113,8.227,14.245c.219.381.379.8.565,1.2v1.13a4.72,4.72,0,0,1-2.061,1.974c-2.647,1.493-5.263,3.043-7.907,4.541a7.235,7.235,0,0,0-3.249,3.611c-.56,1.358-1.386,2.574-2.067,3.867a1.92,1.92,0,0,1-2.4,1.127c-1.107-.439-1.622-1.313-1.083-2.28,1.281-2.3,2.235-4.782,3.818-6.906a13.643,13.643,0,0,1,4.482-3.369c1.828-1.048,3.66-2.09,5.476-3.162.682-.4.734-.809.353-1.467-2.111-3.649-4.245-7.285-6.307-10.962-.448-.8-.9-1.018-1.679-.449-.638.467-1.389.754-2.034,1.216-1.4.741-2.763,1.539-4.112,2.362a12.016,12.016,0,0,1-8.225,1.677,10.872,10.872,0,0,0-6.937,1.569c-7.073,4.013-14.079,8.141-21.149,12.156a5.206,5.206,0,0,0-.746.51c-.818.671-1.025,1.467-.565,2.162a1.6,1.6,0,0,0,2.283.413c1.8-1.016,3.609-2.031,5.393-3.084,1.232-.728,2.476-1.432,3.718-2.143,1.276-.729,2.293-.551,2.953.5.615.978.3,2.114-.937,2.866-2.474,1.509-5.007,2.921-7.518,4.37-1.924,1.111-3.849,2.218-5.76,3.352a1.585,1.585,0,0,0-.876,1.687,1.462,1.462,0,0,0,1.038,1.226,1.978,1.978,0,0,0,1.706-.365c2.574-1.487,5.146-2.984,7.729-4.458,1.9-1.082,3.755-2.227,5.7-3.221a1.794,1.794,0,0,1,2.187.311,1.8,1.8,0,0,1,.51,1.967,2.949,2.949,0,0,1-1.467,1.507c-1.289.778-2.618,1.489-3.918,2.249q-5.365,3.132-10.759,6.212a1.792,1.792,0,0,0-.689.567,5.734,5.734,0,0,1,3.567.716,1.475,1.475,0,0,0,1.584-.194c3.851-2.215,7.68-4.466,11.543-6.659a4.293,4.293,0,0,1,1.554-.643,1.867,1.867,0,0,1,2.049,1.068,1.673,1.673,0,0,1-.467,2.138A12.509,12.509,0,0,1-262.3,413.4c-2.23,1.259-4.421,2.582-6.655,3.833a2.49,2.49,0,0,0-.8.607,8.788,8.788,0,0,1,2.282,1.49c.409.371.823.236,1.242-.013,2.914-1.73,5.889-3.351,8.783-5.114.567-.3,1.124-.61,1.677-.932,1.183-.692,2.206-.676,2.924.011.69.661.715,1.692.04,2.922a14.571,14.571,0,0,0-1.132,2.207,3.3,3.3,0,0,0,.5,3.206c.524.709.724.69,1.193-.093,1.645-2.744,3.162-5.562,4.821-8.3a3.326,3.326,0,0,1,1.1-1.26c.633-.367,1.265-.523,1.813.162a1.974,1.974,0,0,1,.329,2.806c-1.838,3.1-3.607,6.248-5.423,9.364-1.289,2.215-3.271,2.621-5.3,1.085a7.481,7.481,0,0,1-2.946-6.659l-6.627,3.832c4.216.575,5.433,3.371,5.393,6.3-.117,8.361-.034,16.725-.085,25.088a13.815,13.815,0,0,1-2.826,8.3,9.343,9.343,0,0,0-1.922,6.094c.077,2.936.03,5.876.015,8.814-.009,1.932-.9,2.834-2.846,2.839q-8.307.024-16.613,0c-1.912-.006-2.806-.924-2.823-2.869-.023-2.675-.086-5.352.016-8.023a9.936,9.936,0,0,0-2.128-7.158c-.945-1.134-.8-1.834.178-2.858.949-.717,1.841-.533,2.673.484a13.481,13.481,0,0,1,3.068,8.841c-.005,1.837,0,3.674,0,5.513.117,2.158-.453,2.279,2.3,2.266,3.5-.016,7,0,10.5,0,1.9,0,1.9,0,1.9-1.849,0-2.183,0-4.366,0-6.55a11.757,11.757,0,0,1,2.235-7.091,12.96,12.96,0,0,0,2.538-8.021c-.078-7.828-.025-15.658-.027-23.488a7.382,7.382,0,0,0-.063-1.464,1.291,1.291,0,0,0-1.308-1.169,1.36,1.36,0,0,0-1.434,1.039,4.438,4.438,0,0,0-.116,1.345c0,3.011,0,6.023,0,9.034a5.487,5.487,0,0,1-.131,1.569,2.01,2.01,0,0,1-2,1.52,2.038,2.038,0,0,1-1.864-1.686,6.966,6.966,0,0,1-.059-1.351q0-7.057,0-14.116a2.006,2.006,0,0,0-.378-1.595c-1.29-.969-2.413-.566-2.726.983a7.806,7.806,0,0,0-.085,1.577q0,6.663,0,13.327c0,1.859-.7,2.852-1.977,2.867-1.215.015-2.05-1.079-2.064-2.875-.041-5.383-.011-10.767-.017-16.15a8.1,8.1,0,0,0-.062-1.465,1.343,1.343,0,0,0-1.144-1.231,1.42,1.42,0,0,0-1.467.846,3.361,3.361,0,0,0-.273,1.764q-.006,7.962,0,15.924a6.565,6.565,0,0,1-.1,1.575,2.028,2.028,0,0,1-1.927,1.613,2.03,2.03,0,0,1-1.93-1.607,6.449,6.449,0,0,1-.1-1.574q0-6.777,0-13.554a5.216,5.216,0,0,0-.105-1.46,1.41,1.41,0,0,0-1.4-1.1,1.377,1.377,0,0,0-1.41.922,5,5,0,0,0-.256,2q0,8.529,0,17.055c0,1.78-.477,2.661-1.547,2.907-1.034.236-1.785-.27-2.657-1.819a6.136,6.136,0,0,0-2.007-2.4,3.1,3.1,0,0,0-3.043-.188c2.02,3.484,4.046,6.952,6.041,10.439a12.924,12.924,0,0,1,1,1.9A1.66,1.66,0,0,1-290.558,455.028Z" transform="translate(0)" fill="#17479d"/>
    <path id="Trazado_7194" data-name="Trazado 7194" d="M-307.375,422.124c-4.187-2.287-8.346-4.625-12.376-7.175a10.556,10.556,0,0,1-4.084-5,11.557,11.557,0,0,0-5.361-5.873c-2.242-1.226-4.418-2.573-6.658-3.8-.685-.375-.671-.664-.311-1.277q3.484-5.933,6.882-11.913c.341-.6.566-.686,1.173-.321,2.318,1.4,4.684,2.713,7.017,4.084a11.186,11.186,0,0,0,7.362,1.52,36.059,36.059,0,0,1,4.288-.091c1.672-.019,2.195-.566,2.148-2.262a1.062,1.062,0,0,0,1.125.684c1.126-.062,2.259-.016,3.389-.015a2.049,2.049,0,0,0,2.345,1.608c3.2-.051,6.393,0,9.59-.033.767-.008,1,.156.724.926a3.757,3.757,0,0,1-3.236,2.748c-.892.105-1.8.062-2.7.078a1.663,1.663,0,0,0-1.8,1.216,1.684,1.684,0,0,0,.951,2.057q3.5,2.042,6.988,4.1a6.569,6.569,0,0,1-1.42,2.815c-.173.257-.447.206-.706.134-.945-.525-1.9-1.042-2.836-1.578-1.721-.982-2.615-.969-3.23.066s-.175,1.874,1.489,2.847c1.033.6,2.057,1.223,3.084,1.836a4.591,4.591,0,0,1-1.8,3.136c-1.274-.709-2.544-1.426-3.823-2.124a1.7,1.7,0,0,0-2.528.506c-.517.9-.213,1.8.865,2.447,1.219.734,2.453,1.443,3.682,2.162a3.8,3.8,0,0,1-2.277,2.874c-1.079-.6-2.156-1.2-3.239-1.8-1.129-.617-2.111-.416-2.617.523-.484.9-.156,1.745.94,2.417q.766.47,1.536.936a.74.74,0,0,1-.562.752A6.931,6.931,0,0,1-307.375,422.124Z" transform="translate(0.203 0.633)" fill="#8cc5ef"/>
    <path id="Trazado_7195" data-name="Trazado 7195" d="M-292.8,452.749a1.8,1.8,0,0,0,.531-2.728q-3.256-5.676-6.537-11.34c-.635-1.1-.621-1.142.677-1.325a3.751,3.751,0,0,1,3.865,1.774c.419.623.773,1.291,1.141,1.947a1.689,1.689,0,0,0,2.041,1.009,1.738,1.738,0,0,0,1.241-1.916q-.017-9.152,0-18.3a6.441,6.441,0,0,1,.091-1.347,1.7,1.7,0,0,1,1.854-1.46,1.744,1.744,0,0,1,1.775,1.576,5.148,5.148,0,0,1,.034,1.014q0,7.119,0,14.236c0,.264-.008.527,0,.791a1.728,1.728,0,0,0,1.7,1.852,1.729,1.729,0,0,0,1.676-1.889c.026-1.845.008-3.69.008-5.536,0-4.143-.01-8.286.011-12.428a1.916,1.916,0,0,1,1.826-2.042A1.859,1.859,0,0,1-279,418.619c.014.3,0,.6,0,.9q0,8.192,0,16.382a6.512,6.512,0,0,0,.083,1.235,1.542,1.542,0,0,0,1.672,1.367,1.569,1.569,0,0,0,1.613-1.563c.031-.336.02-.677.02-1.016q0-7.005,0-14.01a10.571,10.571,0,0,1,.031-1.127,1.754,1.754,0,0,1,1.309-1.662,1.6,1.6,0,0,1,1.972.668,3.18,3.18,0,0,1,.351,1.624c-.019,2.146.036,4.294-.016,6.439-.146,5.984.319,11.959.24,17.942a15.426,15.426,0,0,1-3.03,9.394,8.242,8.242,0,0,0-1.734,5.372,15.886,15.886,0,0,1-.223,3.825,8.922,8.922,0,0,1-6.731,7.152,1.763,1.763,0,0,1-1.529.008c-.047-2.474-.084-4.95-.143-7.424-.065-2.747-1.5-4.9-3.1-6.964a1.673,1.673,0,0,0-2.155-.352A24.167,24.167,0,0,0-292.8,452.749Z" transform="translate(2.237 2.279)" fill="#c4e1f7"/>
    <path id="Trazado_7196" data-name="Trazado 7196" d="M-248.794,411.93c-1.387-.344-1.88-.152-2.591,1.072-1.7,2.918-3.411,5.825-5.048,8.776-.466.842-.776.788-1.327.142a3.884,3.884,0,0,1-.518-4.41c.358-.7.772-1.371,1.161-2.056a1.672,1.672,0,0,0-.185-2.173,1.672,1.672,0,0,0-2.168-.216l-2.168,1.178c-.436-.647.145-1.063.4-1.5q3.623-6.323,7.282-12.625a18.119,18.119,0,0,0,1.127-2.214,10.861,10.861,0,0,1,5.38-5.407,8.576,8.576,0,0,0,4.835-7.28,7.845,7.845,0,0,0-.63-3.641c-.157-.372-.421-.74-.134-1.168.9-.542,1.808-1.064,2.686-1.634.432-.281.643-.168.877.242q3.537,6.164,7.108,12.3c.348.595.055.761-.379,1.009-2.415,1.382-4.81,2.8-7.231,4.169a10.837,10.837,0,0,0-4.675,5.18c-.548,1.231-1.272,2.385-1.923,3.57-.711,1.3-.6,1.871.563,2.8C-247.416,409.181-247.918,410.674-248.794,411.93Z" transform="translate(4.283 0.2)" fill="#a6d2f2"/>
    <path id="Trazado_7197" data-name="Trazado 7197" d="M-242.116,380.313a18.248,18.248,0,0,1,.982,3.547,8.654,8.654,0,0,1-2.182,6.7,12.256,12.256,0,0,1-3.72,2.686,9.662,9.662,0,0,0-4.16,4.433c-1.921,3.992-4.361,7.695-6.5,11.565a36.7,36.7,0,0,0-2.677,4.907q-4.619,2.7-9.238,5.408c-.32.188-.573.314-.87-.058a5.965,5.965,0,0,0-3.189-1.893l7.216-4.178c1.041-.6,2.091-1.189,3.122-1.81,1.073-.646,1.379-1.564.856-2.446a1.736,1.736,0,0,0-2.562-.473q-6.26,3.593-12.5,7.227a1.237,1.237,0,0,1-1.5.009,4.842,4.842,0,0,0-4.2-.446c.153-.814.753-1.022,1.246-1.308q7.318-4.24,14.648-8.464a5.317,5.317,0,0,0,.943-.612,1.557,1.557,0,0,0,.322-2.137,1.544,1.544,0,0,0-2.051-.664,8.456,8.456,0,0,0-.995.525q-6.254,3.607-12.5,7.22a2.6,2.6,0,0,1-1.57.541,1.753,1.753,0,0,1-1.678-1.426,1.8,1.8,0,0,1,.953-2.089q3.316-1.927,6.64-3.839c2.246-1.3,4.5-2.582,6.739-3.891,1.131-.66,1.463-1.62.924-2.522-.551-.921-1.459-1.056-2.651-.392-.23.129-.456.264-.683.4q-4.006,2.31-8.013,4.616a5.926,5.926,0,0,1-1,.505,1.7,1.7,0,0,1-2.135-.8,1.66,1.66,0,0,1,.217-2.177,4.8,4.8,0,0,1,1.1-.768q10.446-6.042,20.9-12.074a12.614,12.614,0,0,1,8.222-1.737,10.363,10.363,0,0,0,6.633-1.324C-245.392,382.148-243.753,381.233-242.116,380.313Z" transform="translate(3.018 0.293)" fill="#e0f0fb"/>
    <path id="Trazado_7198" data-name="Trazado 7198" d="M-285.7,471.389a9.153,9.153,0,0,0,6.775-4.162,9.97,9.97,0,0,0,1.366-6.158,8.913,8.913,0,0,1,1.734-6.15,16.72,16.72,0,0,0,1.693-2.785,12.744,12.744,0,0,0,1.313-5.648c.052-8.358.013-16.718.031-25.076,0-.616-.213-1.179-.24-1.778.521.46.445,1.082.446,1.677q0,7.513.005,15.025c0,1.277.711,2.074,1.75,2.028,1-.043,1.629-.808,1.633-2.047.012-3.539-.005-7.08.011-10.62.006-1.3.735-2.079,1.883-2.044a1.7,1.7,0,0,1,1.769,1.56,1.912,1.912,0,0,1,.023.339c-.011,8.773.012,17.547-.06,26.319a10.084,10.084,0,0,1-2.213,6.058,12.11,12.11,0,0,0-2.5,8.007c.07,2.446-.008,4.9.029,7.343.011.7-.216.9-.9.893q-6.834-.038-13.669,0c-.761.005-1-.265-.934-.981C-285.7,472.593-285.716,471.99-285.7,471.389Z" transform="translate(2.972 2.442)" fill="#85c1ee"/>
    <path id="Trazado_7199" data-name="Trazado 7199" d="M-308.88,420.359c1.152-.276,2.313-.522,3.452-.845a1.765,1.765,0,0,0,1.112-.7c2.569,1.471,5.15,2.926,7.7,4.422a1.842,1.842,0,0,1,.856,2.579,1.844,1.844,0,0,1-2.638.659C-301.9,424.458-305.387,422.4-308.88,420.359Z" transform="translate(1.708 2.398)" fill="#8cc5ef"/>
    <path id="Trazado_7200" data-name="Trazado 7200" d="M-297.478,411.441l1.8-3.136c3,1.713,5.98,3.45,9,5.117.643.355.482.831.518,1.328.037.515.325,1.2.1,1.5-.315.408-.937-.221-1.454-.116-1.71.351-3.013-.574-4.359-1.374Q-294.672,413.093-297.478,411.441Z" transform="translate(2.332 1.823)" fill="#8cc5ef"/>
    <path id="Trazado_7201" data-name="Trazado 7201" d="M-301.348,416.988a8.557,8.557,0,0,0,2.277-2.874q3.173,1.81,6.347,3.622c.244.14.612.256.349.661a7.393,7.393,0,0,0-.8,3.415Z" transform="translate(2.12 2.141)" fill="#8cc5ef"/>
    <path id="Trazado_7202" data-name="Trazado 7202" d="M-294.351,405.451c.818-.184.866-1.019,1.278-1.541a12.238,12.238,0,0,0,.847-1.408c1.467.824,2.931,1.653,4.4,2.466a.578.578,0,0,1,.322.817,5.587,5.587,0,0,0,.032,3.734Z" transform="translate(2.503 1.506)" fill="#8cc5ef"/>
  </g>
</svg>
