<svg xmlns="http://www.w3.org/2000/svg" width="28.994" height="28.995" viewBox="0 0 28.994 28.995">
  <path id="Icon_awesome-phone-alt" data-name="Icon awesome-phone-alt" d="M28.167,20.49l-6.342-2.718a1.359,1.359,0,0,0-1.586.391L17.43,21.594A20.991,20.991,0,0,1,7.4,11.559L10.827,8.75a1.356,1.356,0,0,0,.391-1.586L8.5.822A1.368,1.368,0,0,0,6.943.035L1.053,1.394A1.359,1.359,0,0,0,0,2.718,26.274,26.274,0,0,0,26.276,29,1.359,1.359,0,0,0,27.6,27.942l1.359-5.89A1.376,1.376,0,0,0,28.167,20.49Z" transform="translate(0 0)" fill="#2975ff" opacity="0.85"/>
</svg>
