<svg xmlns="http://www.w3.org/2000/svg" width="34.544" height="34.953" viewBox="0 0 34.544 34.953">
  <g id="Grupo_7912" data-name="Grupo 7912" opacity="0.64">
    <path id="Trazado_7244" data-name="Trazado 7244" d="M2884.248,194.315c-3.9,0-7.806.008-11.709-.008a8.964,8.964,0,0,1-1.865-.187,4.373,4.373,0,0,1-3.48-3.877,14.712,14.712,0,0,1,.138-5.312,24.927,24.927,0,0,1,1.672-5.994,10.4,10.4,0,0,1,1.069-1.849,3.281,3.281,0,0,1,3.874-1.329,17.442,17.442,0,0,1,4.033,1.9c1.17.653,2.337,1.315,3.538,1.909a5.965,5.965,0,0,0,5.578-.018c1.531-.774,3-1.667,4.522-2.461a18.634,18.634,0,0,1,2.8-1.262,3.4,3.4,0,0,1,4.318,1.556,13.81,13.81,0,0,1,1.776,4.246,23.1,23.1,0,0,1,1.013,7.345,9.553,9.553,0,0,1-.381,2.139,4.238,4.238,0,0,1-3.836,3.119,10.638,10.638,0,0,1-1.351.077Q2890.1,194.32,2884.248,194.315Z" transform="translate(-2867.009 -159.364)" fill="#2975ff"/>
    <path id="Trazado_7245" data-name="Trazado 7245" d="M2971.567,29.417a7.506,7.506,0,1,1,7.5-7.5A7.522,7.522,0,0,1,2971.567,29.417Z" transform="translate(-2954.274 -14.404)" fill="#2975ff"/>
  </g>
</svg>
