<svg xmlns="http://www.w3.org/2000/svg" width="109.959" height="109.738" viewBox="0 0 109.959 109.738">
  <g id="Grupo_7899" data-name="Grupo 7899" transform="translate(515.343 -525.67)">
    <path id="Trazado_7214" data-name="Trazado 7214" d="M-515.343,583.538a5.188,5.188,0,0,1,3.3-3.218,5.479,5.479,0,0,1,6.571,3.755c.741,2.564,1.261,5.192,1.964,7.769A22.955,22.955,0,0,0-491.683,606.6a2.289,2.289,0,0,0,2.614.021,2.192,2.192,0,0,0,.785-2.392q-.612-3.476-1.231-6.951a4.463,4.463,0,0,1,1.912-4.949,4.394,4.394,0,0,1,4.935.213,5.818,5.818,0,0,1,1.374,1.627c2.658,4.143,5.328,8.278,7.962,12.437.359.567.593.774,1.308.458a2.85,2.85,0,0,1,3.278.6q3.269,3.174,6.455,6.435c.8.814.691,1.668-.246,2.605q-5.838,5.841-11.688,11.67-2.959,2.955-5.924,5.907c-.4.4-.84.754-1.262,1.129h-1.073a3.456,3.456,0,0,1-1.413-.909q-2.711-2.745-5.46-5.451a3.482,3.482,0,0,1-1.041-4.065c.27-.676-.081-.944-.6-1.255a50.666,50.666,0,0,1-19.517-20.958,49.04,49.04,0,0,1-4.5-13.57,15.692,15.692,0,0,1-.221-3.085c-.051-.357.113-.737-.111-1.076Z" fill="#17479d"/>
    <path id="Trazado_7215" data-name="Trazado 7215" d="M-424.739,618.074c.441,1.3.311,1.72-.8,2.544a46.323,46.323,0,0,1-4.73,3.1c-.514.291-.8.482-.4,1.173a2.725,2.725,0,0,1-.375,3.377c-2.322,2.452-4.679,4.873-7.192,7.136h-1.074a32.65,32.65,0,0,1-3.005-2.876q-7.867-7.83-15.715-15.68c-1.231-1.229-1.238-1.942-.036-3.142,1.9-1.9,3.809-3.775,5.689-5.687a3.245,3.245,0,0,1,3.98-.856c.672.318.732-.171.933-.482q4.085-6.342,8.154-12.7a4.425,4.425,0,0,1,4.706-2.256,4.227,4.227,0,0,1,3.46,4.793c-.3,2.368-.781,4.713-1.182,7.067-.042.246-.08.493-.123.739a2.119,2.119,0,0,0,.795,2.285,2.223,2.223,0,0,0,2.519.033,22.619,22.619,0,0,0,11.473-13.38c.912-2.8,1.485-5.72,2.206-8.587a5.6,5.6,0,0,1,6.773-4.363,4.888,4.888,0,0,1,3.306,3.432v1.286c-.259.334.021.762-.194,1.1a47.445,47.445,0,0,1-4.467,15.607,50.424,50.424,0,0,1-9.694,13.851,1.9,1.9,0,0,1-2.567.47c-.973-.726-1.019-1.752-.014-2.8,1.209-1.266,2.373-2.57,3.461-3.938a47.12,47.12,0,0,0,9.918-24.022c.154-1.235-.354-1.716-1.577-1.563a2.269,2.269,0,0,0-1.522,1.783q-.835,3.375-1.688,6.747a26.6,26.6,0,0,1-11.614,16.22,13.06,13.06,0,0,1-3.528,1.783c-3.328.944-6.312-.993-7.069-4.541-.156-2.71.682-5.29,1.04-7.933a9.252,9.252,0,0,0,.2-1.481c-.016-.621-.249-1.039-.955-1-.49.081-.677.494-.908.845-2.717,4.14-5.329,8.349-8.057,12.482a1.29,1.29,0,0,0,.192,1.932c3.218,3.134,6.366,6.339,9.563,9.495,1.449,1.482,1.444,1.474,3.184.443,1.5-.888,2.9-1.914,4.345-2.884C-426.2,616.867-425.395,617.036-424.739,618.074Z" fill="#17479d"/>
    <path id="Trazado_7216" data-name="Trazado 7216" d="M-515.156,586.152a1.324,1.324,0,0,1-.187-.041v-1.072A1.11,1.11,0,0,1-515.156,586.152Z" fill="#17479d"/>
    <path id="Trazado_7217" data-name="Trazado 7217" d="M-405.578,586.142a1.106,1.106,0,0,1,.194-1.1v1.072l-.1-.008Z" fill="#17479d"/>
    <path id="Trazado_7218" data-name="Trazado 7218" d="M-437.256,535.135a1.691,1.691,0,0,1,1.932-1.562c1.932.031,3.865-.017,5.8.023a1.731,1.731,0,0,0,1.486-.627c.466-.539,1-1.02,1.515-1.517.876-.85,1.859-.938,2.54-.236a1.659,1.659,0,0,1-.234,2.455c-.22.228-.476.419-.811.711,2.454,1.591,2.973,3.9,2.849,6.5-.074,1.556-.583,2.092-2.184,2.1-.887.008-1.774,0-2.8,0l1.564,3.733c1.374,3.284,2.761,6.563,4.107,9.858a1.02,1.02,0,0,0,1.174.783,20.387,20.387,0,0,1,2.039-.012c1.443.018,2.005.572,1.944,2.04a14.505,14.505,0,0,1-5.832,11.191c-5.064,4.026-15.644,4.107-20.8-.99a14.931,14.931,0,0,1-4.658-10.143c-.079-1.477.552-2.289,2.009-2.052,2.337.38,3.255-.68,4-2.715,1.437-3.9,3.167-7.691,4.759-11.487-.2-.3-.432-.2-.624-.2-5.261-.007-10.521.006-15.781-.02-.668,0-.9.124-.9.858q.036,20.3,0,40.607c0,.663.162.86.829.821,1.034-.06,2.074-.021,3.112-.014a5,5,0,0,1,5.224,4.854c.092,1.458.058,2.928.015,4.391a1.57,1.57,0,0,1-1.764,1.71q-13.633.018-27.268.006a1.518,1.518,0,0,1-1.718-1.524,27.954,27.954,0,0,1,.08-5.239,4.954,4.954,0,0,1,4.834-4.194,31.716,31.716,0,0,1,3.219.015c.884.073,1.027-.263,1.025-1.061q-.036-18.642-.017-37.285c0-1.108-.018-2.215.009-3.322.011-.448-.1-.62-.589-.619-5.542.017-11.085.011-16.783.011.63,1.507,1.216,2.907,1.8,4.307,1.263,3.022,2.557,6.031,3.764,9.075a1.306,1.306,0,0,0,1.574.992,13.527,13.527,0,0,1,1.824-.011c1.353.025,1.928.641,1.891,2.012a14.348,14.348,0,0,1-9.915,13.286A18.185,18.185,0,0,1-496,572.094c-1.273-.548-1.5-1.141-1.122-2.464a1.459,1.459,0,0,1,1.836-.944,7.023,7.023,0,0,1,1.313.458,15.661,15.661,0,0,0,6.431.8,11.126,11.126,0,0,0,10.526-8.091c.167-.717-.007-1-.752-.976-.928.03-1.859-.009-2.79.035-6.144.03-12.286.006-18.429.015-1.654,0-1.761.165-1.224,1.7a22.17,22.17,0,0,0,1.162,2.4,1.737,1.737,0,0,1-.412,2.446c-1.44.552-1.954.392-2.754-.9a14.053,14.053,0,0,1-2.174-7.392c-.012-1.243.6-2.016,1.82-1.8,2.533.457,3.5-.772,4.276-2.955,1.265-3.548,2.869-6.975,4.327-10.454.121-.288.22-.584.374-.995-1.053,0-2.007.015-2.961,0-1.367-.028-1.919-.61-1.984-1.973-.117-2.451.226-4.724,2.386-6.3.429-.312.2-.463-.034-.716-1.136-1.249-1.278-2.106-.5-2.834s1.793-.6,2.82.665a4.908,4.908,0,0,0,4.351,1.8c6.76-.112,13.523-.059,20.284-.026.809,0,1.069-.186,1.137-1.031a7.751,7.751,0,0,1,7.716-6.9,7.732,7.732,0,0,1,7.736,6.874c.073.921.395,1.072,1.225,1.057,2.9-.051,5.795-.021,8.693-.019,1.59,0,1.829.167,2.3,1.584a1.538,1.538,0,0,1-1.292,1.839,6.917,6.917,0,0,1-2.024.147q-23.648,0-47.3,0c-.5,0-1-.01-1.5.019a2.206,2.206,0,0,0-2.267,1.742c.008.482.323.585.721.592.322.005.644,0,.966,0q31.916,0,63.83,0c.823,0,1.645-.022,2.466-.056.922-.037,1.111-.445.614-1.239a2.121,2.121,0,0,0-1.571-1.006,12.2,12.2,0,0,0-1.391-.084c-1.965.034-3.929.014-5.893.008a2.422,2.422,0,0,1-2.011-.82A.984.984,0,0,1-437.256,535.135Z" fill="#17479d"/>
    <path id="Trazado_7219" data-name="Trazado 7219" d="M-495.184,538.908a2.408,2.408,0,0,1,2.43-2.1c.607-.025,1.216-.008,1.824-.008h48.169c1.562,0,1.924-.258,2.341-1.63l3.164-.032c.292,1.271.748,1.647,2.059,1.661,1.992.02,3.984.028,5.975.042a1.745,1.745,0,0,1,.892,1.149c.469,1.356.212,1.717-1.227,1.717q-32.259,0-64.518-.016C-494.543,539.687-495.481,540.1-495.184,538.908Z" fill="#85c1ee"/>
    <path id="Trazado_7220" data-name="Trazado 7220" d="M-499.463,567.48a2.085,2.085,0,0,0-.048-2.667,10.163,10.163,0,0,1-1.4-3.34c-.16-.607-.028-.91.71-.906,6.62.033,13.241.035,19.861.045.322.344.195.733.111,1.115a13.368,13.368,0,0,1-4.747,7.571,4.115,4.115,0,0,1-2.446.921,14.655,14.655,0,0,1-7.525-1.158,1.645,1.645,0,0,0-2.178.569A10.2,10.2,0,0,1-499.463,567.48Z" fill="#2975ff"/>
    <path id="Trazado_7221" data-name="Trazado 7221" d="M-410.58,583.517c1.394-.324,2.1.241,1.938,1.606a47.206,47.206,0,0,1-12.593,27.384c-.268.287-.549.562-.82.846-.968,1.011-1.017,1.551-.251,2.717a12.259,12.259,0,0,0-2.433,2c-1.109-.87-1.523-.9-2.638-.089-1.612,1.167-3.3,2.21-4.986,3.267-.808.507-1.383.523-1.939-.281a8.506,8.506,0,0,0-.7-.79c.085-.446.46-.609.8-.8a46.273,46.273,0,0,0,11.549-9.279,48.1,48.1,0,0,0,8.79-13.712,53.385,53.385,0,0,0,3.175-10.855A5.452,5.452,0,0,0-410.58,583.517Z" fill="#85c1ee"/>
    <path id="Trazado_7222" data-name="Trazado 7222" d="M-490.6,610.309c3.067-.364,4.8-1.639,5.445-4.024a9.629,9.629,0,0,0-.211-4.132q-.395-2.427-.786-4.853c-.134-.348-.094-.589.353-.441a1.407,1.407,0,0,1,.664.672c2.7,4.187,5.409,8.364,8.079,12.569.2.316.49.631.367,1.07-3.4,3.416-6.8,6.822-10.174,10.259-.492.5-.833.172-1.209-.041a48.745,48.745,0,0,1-12.012-9.558,45.943,45.943,0,0,1-11.75-24.71c-.068-.456-.063-.922-.092-1.384-.084-.34-.253-.74.123-.963.349-.207.689.051.974.265a4.636,4.636,0,0,1,1.562,2.73c.69,2.621,1.2,5.291,1.995,7.879a24.252,24.252,0,0,0,12.475,14.8,3.547,3.547,0,0,0,3.3.09C-491.226,610.41-490.951,610.2-490.6,610.309Z" fill="#c4e1f7"/>
    <path id="Trazado_7223" data-name="Trazado 7223" d="M-467.229,616.77c-2.053,2.078-4.1,4.162-6.162,6.231-2.618,2.627-5.269,5.221-7.856,7.877-.581.6-.881.547-1.4-.029-1.05-1.16-2.176-2.253-3.27-3.373-.126-.481.253-.713.515-.976q6.234-6.245,12.488-12.465c1.152-1.144,2.066-1.173,3.271-.119.751.656,1.436,1.387,2.125,2.108C-467.328,616.225-467.108,616.437-467.229,616.77Z" fill="#365e7c"/>
    <path id="Trazado_7224" data-name="Trazado 7224" d="M-490.6,610.309c-2.257,1.758-4.228.6-6.166-.631a24.979,24.979,0,0,1-11.485-16.619c-.379-1.8-.857-3.59-1.315-5.378A4.189,4.189,0,0,0-510.9,585.3c-.247-.2-.514-.491-.838-.344-.3.134-.1.521-.189.782-.344-1.329-.111-2.044.756-2.319a2.239,2.239,0,0,1,2.572,1.432c.334.973.531,1.994.781,2.995.9,3.59,1.615,7.23,3.414,10.536a26.7,26.7,0,0,0,11.564,11.243A12.231,12.231,0,0,0-490.6,610.309Z" fill="#85c1ee"/>
    <path id="Trazado_7225" data-name="Trazado 7225" d="M-467.229,616.77c-.892-.923-1.746-1.887-2.686-2.759a1.651,1.651,0,0,0-2.55-.058q-6.656,6.612-13.28,13.255a1.451,1.451,0,0,0-.174.268c-1.352-1.122-1.352-1.122-.162-2.309,4.8-4.794,9.624-9.575,14.4-14.4.635-.64.986-.637,1.587.014,1.187,1.284,2.436,2.515,3.713,3.712.586.549.76.967.026,1.494A10.911,10.911,0,0,0-467.229,616.77Z" fill="#2b4d66"/>
    <path id="Trazado_7226" data-name="Trazado 7226" d="M-476.693,611.17q-4.359-6.778-8.725-13.554c-.152-.235-.2-.9-.738-.316a1.824,1.824,0,0,1-.217-.921,1.129,1.129,0,0,1,.667-1.409,1.2,1.2,0,0,1,1.519.653q4.347,6.789,8.719,13.563a.622.622,0,0,1-.132.979C-475.983,610.477-476.33,610.833-476.693,611.17Z" fill="#c4e1f7"/>
    <path id="Trazado_7227" data-name="Trazado 7227" d="M-410.58,583.517c.342.057.463.215.4.591a52.467,52.467,0,0,1-3.737,13.052,48.666,48.666,0,0,1-11.673,16.261,43.177,43.177,0,0,1-8.507,6.2c-.311.171-.605.373-.906.56q-5.1-5.049-10.205-10.093a.539.539,0,0,1-.107-.811q4.469-6.921,8.913-13.857a.669.669,0,0,1,.5-.364c.313.354.145.751.077,1.123-.313,1.722-.529,3.461-.9,5.171a3.008,3.008,0,0,0,.367,2.369,4.313,4.313,0,0,1,.654,2.106c1.17,4.026,4.574,5.522,8.247,3.559a26.309,26.309,0,0,0,13.678-17.938q.74-3.115,1.519-6.221A2.016,2.016,0,0,1-410.58,583.517Z" fill="#c4e1f7"/>
    <path id="Trazado_7228" data-name="Trazado 7228" d="M-440.4,629.841q-3.273-3.223-6.543-6.449c-2.505-2.485-4.981-5-7.508-7.462-.547-.534-.529-.844.017-1.341,1.132-1.029,2.206-2.12,3.3-3.186.528-.121.768.3,1.054.589q6.105,6.069,12.187,12.16c1.323,1.328,1.3,2.321-.014,3.67-.524.535-1.049,1.069-1.594,1.582C-439.744,629.638-439.966,629.968-440.4,629.841Z" fill="#365e7c"/>
    <path id="Trazado_7229" data-name="Trazado 7229" d="M-440.4,629.841c.924-.89,1.887-1.744,2.762-2.68.766-.818.652-1.74-.249-2.643q-4.426-4.44-8.875-8.858c-1.442-1.432-2.911-2.839-4.368-4.257,1.221-1.468,1.221-1.468,2.493-.2q7.211,7.2,14.433,14.382c.566.56.605.852.006,1.407-1.337,1.237-2.625,2.532-3.872,3.861-.532.566-.9.7-1.4.015A12.343,12.343,0,0,0-440.4,629.841Z" fill="#2b4d66"/>
    <path id="Trazado_7230" data-name="Trazado 7230" d="M-435.7,605.825a7.11,7.11,0,0,0-.88-1.874,3.425,3.425,0,0,1-.42-2.744c.468-2.027.748-4.1,1.106-6.151,1.2-.285,1.713.155,1.517,1.436-.343,2.238-.733,4.469-1.155,6.693A12.72,12.72,0,0,0-435.7,605.825Z" fill="#c4e1f7"/>
    <path id="Trazado_7231" data-name="Trazado 7231" d="M-457.4,545.379q.016,7.227.032,14.453c.005,8.1-.012,16.2.021,24.305,0,.861-.16,1.189-1.092,1.131-1.389-.086-2.788-.04-4.182-.013-.519.01-.761-.086-.76-.691q.041-19.593.045-39.186a.986.986,0,0,1,.987-.512q1.982-.063,3.964,0A.98.98,0,0,1-457.4,545.379Z" fill="#85c1ee"/>
    <path id="Trazado_7232" data-name="Trazado 7232" d="M-430.508,570.215c-3.356.231-6.572-.106-9.358-2.25a11.343,11.343,0,0,1-4.27-6.6c-.158-.676.038-.8.649-.794q9.922.031,19.848.033a1.323,1.323,0,0,1,.157,1.321,13.221,13.221,0,0,1-4.6,7.284A4.6,4.6,0,0,1-430.508,570.215Z" fill="#2975ff"/>
    <path id="Trazado_7233" data-name="Trazado 7233" d="M-425.076,556.358c.12.288.234.578.392.971H-439.11c-.136-.41.123-.709.254-1.023,1.723-4.141,3.508-8.257,5.162-12.425.438-1.1,1.19-.842,1.961-.9a1.208,1.208,0,0,1,1.451.852" fill="#fff"/>
    <path id="Trazado_7234" data-name="Trazado 7234" d="M-481.552,557.324h-14.332c-.225-.29.043-.532.137-.759,1.791-4.3,3.618-8.6,5.385-12.91a.955.955,0,0,1,1.241-.651c.653.133,1.495-.478,1.931.578,1.82,4.409,3.683,8.8,5.525,13.2A3.038,3.038,0,0,1-481.552,557.324Z" fill="#fff"/>
    <path id="Trazado_7235" data-name="Trazado 7235" d="M-450.92,592.95q-10.465.018-20.933.035c-.321,0-.707.037-.7-.438a9.658,9.658,0,0,1,.126-2.768,1.712,1.712,0,0,1,1.752-1.308q9.661,0,19.324.032A4.512,4.512,0,0,1-450.92,592.95Z" fill="#365e7c"/>
    <path id="Trazado_7236" data-name="Trazado 7236" d="M-460.454,533.582c-1.216,0-2.433-.03-3.647.012-.646.022-.889-.131-.806-.836a4.663,4.663,0,0,1,4.579-3.873,4.635,4.635,0,0,1,4.51,3.946c.045.547-.069.778-.668.762C-457.808,533.557-459.132,533.582-460.454,533.582Z" fill="#85c1ee"/>
    <path id="Trazado_7237" data-name="Trazado 7237" d="M-487.421,570.219c3.161-1.039,4.907-3.491,6.209-6.325a8.452,8.452,0,0,0,.873-3.282c1.035-.009,2.071,0,3.1-.034.628-.021.774.144.634.807a11.357,11.357,0,0,1-8.917,8.641A5.019,5.019,0,0,1-487.421,570.219Z" fill="#2975ff"/>
    <path id="Trazado_7238" data-name="Trazado 7238" d="M-430.508,570.215c3.692-1.029,7.03-6.628,6.869-9.61,1-.007,2,.025,3-.032.823-.046.975.277.8,1.015a11.374,11.374,0,0,1-9.081,8.456A3.96,3.96,0,0,1-430.508,570.215Z" fill="#2975ff"/>
    <path id="Trazado_7239" data-name="Trazado 7239" d="M-495.184,538.908c.013.461.187.742.713.692.283-.028.571,0,.857,0h63.59c1.878,0,2.02-.235,1.195-2-.121-.258-.261-.507-.393-.76.464-.011.93-.055,1.391-.025a2.544,2.544,0,0,1,2.356,2.123c.121.589.013.874-.66.853-1-.032-2,0-3,0q-32.506,0-65.011-.014C-494.647,539.774-495.675,540.18-495.184,538.908Z" fill="#85c1ee"/>
    <path id="Trazado_7240" data-name="Trazado 7240" d="M-457.4,545.379a17.526,17.526,0,0,0-5.936,0c-.116-2.386-.116-2.386,2.22-2.386.963,0,1.929.047,2.888-.015.731-.047.94.236.869.911C-457.407,544.381-457.385,544.882-457.4,545.379Z" fill="#85c1ee"/>
    <path id="Trazado_7241" data-name="Trazado 7241" d="M-450.92,592.95a11.791,11.791,0,0,0-.431-4.448c.46-.011.922-.057,1.38-.027a1.714,1.714,0,0,1,1.684,1.364c.248.972.471,2.166-.022,2.884C-448.786,593.42-450.02,592.905-450.92,592.95Z" fill="#2b4c65"/>
    <path id="Trazado_7242" data-name="Trazado 7242" d="M-488.711,563.372c1.3.005,2,.513,2.082,1.5a1.737,1.737,0,0,1-1.474,1.7c-1.345.251-2.391-.194-2.689-1.143C-491.158,564.255-490.257,563.366-488.711,563.372Z" fill="#17479d"/>
    <path id="Trazado_7243" data-name="Trazado 7243" d="M-431.846,563.38a1.6,1.6,0,0,1,1.9,1.126,1.483,1.483,0,0,1-.626,1.776,2.911,2.911,0,0,1-2.934-.124,1.481,1.481,0,0,1-.435-1.824C-433.541,563.41-432.744,563.328-431.846,563.38Z" fill="#17479d"/>
  </g>
</svg>
