<svg xmlns="http://www.w3.org/2000/svg" width="112.307" height="110.459" viewBox="0 0 112.307 110.459">
  <g id="Grupo_7894" data-name="Grupo 7894" transform="translate(124.859 -376.27)">
    <path id="Trazado_7136" data-name="Trazado 7136" d="M-53.848,468.484c.271.135.545.267.816.4a5.255,5.255,0,0,1,2.308,7.485,1.009,1.009,0,0,0,.061,1.372,5.051,5.051,0,0,1,.639,5.6,5.35,5.35,0,0,1-4.858,3.3c-3.291.073-6.585.031-9.878.032-6.967,0-13.936-.018-20.9.011a5.652,5.652,0,0,1-5.446-3.119,5.179,5.179,0,0,1,.673-5.99.74.74,0,0,0,.026-.995,5.183,5.183,0,0,1,.847-6.783,1.134,1.134,0,0,0,.371-1.1,20.8,20.8,0,0,0-2.885-7.3c-2.47-4.274-5.642-8.093-8.116-12.359a79.9,79.9,0,0,1-10.45-29.6,36.291,36.291,0,0,1,3.951-22.749,37.089,37.089,0,0,1,13.6-14.133A43.259,43.259,0,0,1-71.06,376.41c1.277-.027,1.821.4,2.306,1.771a2.651,2.651,0,0,1,.3,1.772q.01,12.751.005,25.5c0,1.788.016,1.8,1.777,1.8,1.263,0,2.527-.017,3.791.005.769.013,1.118-.293,1.114-1.081q-.016-3.445,0-6.891a1.8,1.8,0,0,0-.961-1.562,5.665,5.665,0,0,1-2.643-5.51,5.735,5.735,0,0,1,3.713-4.741,5.724,5.724,0,0,1,7.043,2.49,5.56,5.56,0,0,1-1.5,7.471,2.874,2.874,0,0,0-1.328,2.778c.068,1.874.01,3.752.021,5.627.009,1.334.085,1.4,1.456,1.413a17.062,17.062,0,0,1,1.722.035,2.372,2.372,0,0,1,2.3,2.3,20.857,20.857,0,0,1,.041,2.182c.005.649.263,1,.953,1,.956,0,1.914,0,2.871,0,.653,0,1-.272,1.008-.952.008-1.187.012-2.374,0-3.56-.009-.675-.465-.98-.946-1.327a5.7,5.7,0,0,1-2.642-5.515,5.732,5.732,0,0,1,3.71-4.742,5.721,5.721,0,0,1,6.986,2.383,5.576,5.576,0,0,1-1.437,7.571,2.874,2.874,0,0,0-1.329,2.78c.07,1.6.044,3.216.008,4.823-.045,1.987-.911,2.842-2.915,2.882-1.684.033-3.369.028-5.054,0-.889-.014-1.239.353-1.22,1.23.031,1.454.024,2.91,0,4.364-.012.779.314,1.1,1.094,1.1,2.91-.013,5.82-.006,8.73,0a1.811,1.811,0,0,0,1.558-.979,5.717,5.717,0,0,1,6.414-2.416,2.412,2.412,0,0,1,1.41.921c2.635,2.384,3.195,4.849,1.67,7.486a5.9,5.9,0,0,1-4.2,2.676,1.724,1.724,0,0,1-1.539.175,6.091,6.091,0,0,1-3.794-2.592,1.807,1.807,0,0,0-1.706-.921c-2.795.016-5.59.031-8.385-.007-.966-.014-1.312.382-1.244,1.3a12.161,12.161,0,0,1-.006,1.492c-.089,1.8-.927,2.667-2.721,2.722-1.683.051-3.369,0-5.054.025-.465.008-1.109-.2-1.293.432a3.249,3.249,0,0,0,.074,2.249c.153.341.6.289.938.295,1.148.018,2.3-.023,3.446.018,1.853.064,2.7.925,2.774,2.793a6.246,6.246,0,0,1,0,.918,3.1,3.1,0,0,0,1.422,3.195,5.473,5.473,0,0,1,1.787,6.58,5.938,5.938,0,0,1-6.036,3.688,6.072,6.072,0,0,1-5.113-4.931,5.873,5.873,0,0,1,2.349-5.55c.264-.222.582-.371.835-.607a1.17,1.17,0,0,0,.295-1.269c-.139-.476-.577-.447-.951-.457-1.187-.029-2.375.023-3.56-.024a2.482,2.482,0,0,1-2.724-2.719c-.048-1.186-.027-2.374-.014-3.56.012-1.111-.732-1.068-1.487-1.06s-1.534-.075-1.5,1.045c.007.229-.006.46-.006.689q0,15.391,0,30.782c0,1.7.027,1.722,1.738,1.724,3.523.005,7.046-.006,10.568.007A3.2,3.2,0,0,1-53.848,468.484Z" transform="translate(0.997 0.01)" fill="#17479d"/>
    <path id="Trazado_7137" data-name="Trazado 7137" d="M-35.539,421.207c-3.651-1.591-5.944-.923-7.963,2.383a.791.791,0,0,1-.812.43c-3.369,0-6.739-.011-10.107.006-.475,0-.674-.1-.667-.625.029-2.029.036-4.059,0-6.087-.012-.617.259-.664.752-.658,2.028.02,4.058.017,6.087.005,1.68-.009,2.357-.691,2.366-2.381.01-2.029.027-4.059-.011-6.087a1.391,1.391,0,0,1,.845-1.5,5.518,5.518,0,0,0,2.608-6.284,5.7,5.7,0,0,0-5.443-3.971,5.654,5.654,0,0,0-5.186,4.294,5.5,5.5,0,0,0,2.767,6.012,1.222,1.222,0,0,1,.756,1.315c-.038,1.378-.027,2.756,0,4.135.01.53-.039.836-.719.807-1.375-.06-2.756-.047-4.134,0-.587.018-.7-.209-.68-.729.035-.918.035-1.839,0-2.756a1.913,1.913,0,0,0-2.013-2.035c-.918-.035-1.84-.048-2.755.006-.628.038-.757-.2-.752-.777.028-2.679.047-5.36-.011-8.039-.015-.711.388-.866.854-1.135a5.62,5.62,0,0,0,2.612-6.3,5.689,5.689,0,0,0-5.432-3.986,5.679,5.679,0,0,0-5.232,4.389,5.549,5.549,0,0,0,2.786,5.912,1.241,1.241,0,0,1,.772,1.307q-.05,3.9,0,7.81c.01.653-.179.834-.825.819q-2.87-.063-5.743,0c-.661.015-.816-.193-.814-.831q.043-14.3.042-28.6c1.181.383,2.454.043,3.632.456a.53.53,0,0,1,.251.48c-.12.962.416,1.178,1.244,1.328,1.017.184,1.8.206,1.99-1.061a.429.429,0,0,1,.4-.347c1.058.655,2.366.6,3.441,1.206a.4.4,0,0,1,.164.5c-.37.921.09,1.263.908,1.528,1.434.465,1.42.508,2.257-.705a.374.374,0,0,1,.376-.189,16.859,16.859,0,0,0,3.235,1.638.5.5,0,0,1-.032.721c-.667.794-.22,1.187.5,1.516a3.455,3.455,0,0,1,.584.353c.664.479,1.234.526,1.7-.282.139-.242.3-.553.689-.481.646,1.133,1.827,1.621,2.82,2.335a.907.907,0,0,1-.03.441c-.1.443-.82.706-.581,1.128a6.382,6.382,0,0,0,1.642,1.684c.351.285.611-.013.884-.222.3-.233.5-.705,1.022-.507a8.574,8.574,0,0,0,2.384,2.787.867.867,0,0,1-.135.426c-.221.421-.977.569-.784,1.149a5.854,5.854,0,0,0,1.264,1.87c.24.277.545.153.833,0,.319-.167.608-.492,1.032-.267l1.622,3.249a.437.437,0,0,1-.279.452c-.948.375-.8.993-.481,1.744.593,1.392.565,1.4,2.071,1.1a.455.455,0,0,1,.509.137c-.288,1.3.549,2.394.7,3.615-.062.148-.166.3-.309.319-1.126.177-1.082.861-.906,1.762.191.971.4,1.731,1.643,1.419a.457.457,0,0,1,.485.24c-.615,1.217.259,2.434,0,3.651-1.243.207-1.678.89-1.581,2.174.058.757.146,1.221.94,1.363a.616.616,0,0,1,.416.36Z" transform="translate(3.835 0.129)" fill="#c4e1f7"/>
    <path id="Trazado_7138" data-name="Trazado 7138" d="M-56.686,465.039c-4.509-.4-9.027-.132-13.54-.153-1.125-.005-1.432-.23-1.426-1.408q.08-16.25.01-32.5c0-.9.222-1.137,1.118-1.117,2.579.059,2.58.017,2.58,2.618q0,1.034,0,2.067c0,2.087.59,2.688,2.635,2.691,1.111,0,2.222-.04,3.33.019.461.026,1.252-.358,1.331.328.086.745.488,1.687-.7,2.228a5.066,5.066,0,0,0-2.658,3.3,5.411,5.411,0,0,0,3.316,6.609,5.466,5.466,0,0,0,6.819-2.65,5.347,5.347,0,0,0-1.947-7.024,1.962,1.962,0,0,1-1.114-2.163,17.442,17.442,0,0,0,.008-2.3,1.906,1.906,0,0,0-2.028-2.02q-2.238-.055-4.479,0c-.6.015-.85-.092-.86-.788-.042-2.9-.07-2.9,2.869-2.9,1.379,0,2.757.016,4.135,0a1.978,1.978,0,0,0,2.207-2.2c.028-1.065-.372-2.544.172-3.092.7-.7,2.164-.2,3.3-.212,2.374-.034,4.747-.01,7.121-.012.416,0,.79-.05,1.037.462a5.622,5.622,0,0,0,5.377,3.214,17.311,17.311,0,0,0-1.149,3.865.468.468,0,0,1-.309.115c-.487.043-1.013-.554-1.4-.132a5.658,5.658,0,0,0-.952,2.183c-.1.3.091.5.338.653.286.178.634.3.719.686a20.917,20.917,0,0,0-1.379,3.377.46.46,0,0,1-.628.011c-.958-.763-1.268-.08-1.566.668a2.464,2.464,0,0,1-.207.407c-.514.8-.848,1.536.477,1.883a.407.407,0,0,1,.31.527c-.852.318-.828,1.282-1.354,1.85a6.825,6.825,0,0,0-.711,1.145.472.472,0,0,1-.211.065c-.5.046-.923-.683-1.349-.322a6.012,6.012,0,0,0-1.332,1.953c-.347.69.678.85.621,1.451a19.53,19.53,0,0,1-1.88,3.09.472.472,0,0,1-.321.085c-.473-.019-.818-.836-1.31-.355a5.666,5.666,0,0,0-1.435,2.177c-.2.59.853.611.793,1.247-.405,1.148-1.429,1.988-1.623,3.242a.555.555,0,0,1-.327.06c-.508-.018-1-.75-1.462-.236a5.5,5.5,0,0,0-1.146,2.337c-.079.309.16.471.4.62.271.167.7.172.71.634A10.424,10.424,0,0,0-56.686,465.039Z" transform="translate(3.834 3.455)" fill="#c4e1f7"/>
    <path id="Trazado_7139" data-name="Trazado 7139" d="M-37.425,414.765c-1.736-.362-1.736-.362-1.664-1.874.088-1.849.088-1.849,1.889-2.023,1.884.144,1.884.144,1.788,2.083C-35.5,414.734-35.5,414.734-37.425,414.765Z" transform="translate(6.179 2.493)" fill="#17479d"/>
    <path id="Trazado_7140" data-name="Trazado 7140" d="M-45.589,441.339c-1.762-1.113-1.762-1.113-1.06-2.5.89-1.759.89-1.759,2.675-1,1.535.832,1.535.832.749,2.382-.051.1-.093.209-.145.311C-44.109,441.994-44.109,441.994-45.589,441.339Z" transform="translate(5.604 4.402)" fill="#17479d"/>
    <path id="Trazado_7141" data-name="Trazado 7141" d="M-56.728,459.1c-1.726-.869-1.726-.869-.824-2.707.772-1.573.772-1.573,2.649-.708,1.4.912,1.4.912.636,2.509a1.243,1.243,0,0,0-.11.2c-.281,1.118-.862,1.5-1.91.8A1.288,1.288,0,0,0-56.728,459.1Z" transform="translate(4.807 5.681)" fill="#17479d"/>
    <path id="Trazado_7142" data-name="Trazado 7142" d="M-64.325,379c-.6,1.948-.6,1.948-2.321,1.683-1.583-.243-1.583-.243-1.562-2.083.468-1.877.468-1.877,2.383-1.5.038.006.073.022.11.03C-64.145,377.435-64.145,377.435-64.325,379Z" transform="translate(4.082 0.046)" fill="#17479d"/>
    <path id="Trazado_7143" data-name="Trazado 7143" d="M-57.654,381.215c-.941,1.792-.941,1.792-2.468,1.228-1.684-.623-1.684-.623-1.237-2.356.7-1.755.7-1.755,2.523-1.081.035.013.07.031.105.044C-57.149,379.639-57.149,379.638-57.654,381.215Z" transform="translate(4.558 0.167)" fill="#17479d"/>
    <path id="Trazado_7144" data-name="Trazado 7144" d="M-38.611,400.857c-2.1.635-1.959.559-2.981-1.332-.856-1.581.53-1.547,1.161-2.1,1.735-.649,1.736-.649,2.482,1.122.044.105.079.214.124.319C-37.232,400.275-37.232,400.274-38.611,400.857Z" transform="translate(5.981 1.496)" fill="#17479d"/>
    <path id="Trazado_7145" data-name="Trazado 7145" d="M-37.158,407.722c-2.042.128-2.042.128-2.42-1.783-.269-1.366-.269-1.366,1.506-1.959,1.786-.268,1.785-.268,2.157,1.612.023.111.062.219.083.33C-35.538,407.5-35.538,407.5-37.158,407.722Z" transform="translate(6.136 1.988)" fill="#17479d"/>
    <path id="Trazado_7146" data-name="Trazado 7146" d="M-49.669,447.049c-1.246-1.048-1.246-1.048-.288-2.485.985-1.481.985-1.481,2.559-.663,1.539,1.149,1.539,1.149.419,2.83-.043.063-.091.123-.134.187-.82,1.228-.819,1.225-2.056.4A5.447,5.447,0,0,0-49.669,447.049Z" transform="translate(5.348 4.834)" fill="#17479d"/>
    <path id="Trazado_7147" data-name="Trazado 7147" d="M-53.515,452.879l-1.378-1.038c.325-.489.638-.968.958-1.442,1.082-1.6,1.083-1.6,2.692-.674,1.413,1.169,1.413,1.169.329,2.769C-51.784,453.779-51.784,453.779-53.515,452.879Z" transform="translate(5.042 5.248)" fill="#17479d"/>
    <path id="Trazado_7148" data-name="Trazado 7148" d="M-51.423,384.471c-1.321,1.721-1.251,1.574-3.2.643-1.738-.831-.393-1.636-.238-2.47.946-1.456.946-1.456,2.519-.5l.294.176C-50.668,383.156-50.668,383.156-51.423,384.471Z" transform="translate(4.998 0.375)" fill="#17479d"/>
    <path id="Trazado_7149" data-name="Trazado 7149" d="M-41.809,394.625c-1.767.964-1.767.964-2.924-.67-.8-1.127-.8-1.127.713-2.51,1.359-.92,1.36-.92,2.352.473.066.092.129.187.2.279C-40.454,393.63-40.454,393.63-41.809,394.625Z" transform="translate(5.736 1.047)" fill="#17479d"/>
    <path id="Trazado_7150" data-name="Trazado 7150" d="M-42.808,434.93c-1.6-.854-1.6-.854-.882-2.654a1.694,1.694,0,0,0,.14-.31c.189-1.13.778-1.3,1.709-.744a2.879,2.879,0,0,0,.64.2c1.547.683,1.547.683.921,2.255C-41.012,435.518-41.012,435.518-42.808,434.93Z" transform="translate(5.816 3.938)" fill="#17479d"/>
    <path id="Trazado_7151" data-name="Trazado 7151" d="M-46.066,389.033c-1.6,1.386-1.505,1.258-3.205-.034-1.536-1.167-.043-1.695.268-2.49,1.186-1.211,1.186-1.211,2.483-.034l.338.307C-45.013,387.848-45.013,387.848-46.066,389.033Z" transform="translate(5.398 0.672)" fill="#17479d"/>
    <path id="Trazado_7152" data-name="Trazado 7152" d="M-27.028,380.037c0-.3-.008-.608-.009-.911,0-2.99,0-2.973,2.979-2.787.548.034.723.207.705.736-.032.986-.014,1.975-.016,2.962-.049.045-.1.09-.148.136a6.788,6.788,0,0,1-3.365,0C-26.931,380.129-26.979,380.083-27.028,380.037Z" transform="translate(7.049)" fill="#85c1ee"/>
    <path id="Trazado_7153" data-name="Trazado 7153" d="M-26.777,383.445c-.3,0-.607.008-.911.008-2.99,0-2.973,0-2.787-2.978.034-.548.208-.721.738-.705.986.032,1.975.014,2.962.016l-.016-.016a5.1,5.1,0,0,1,.16,3.518Q-26.7,383.366-26.777,383.445Z" transform="translate(6.797 0.252)" fill="#85c1ee"/>
    <path id="Trazado_7154" data-name="Trazado 7154" d="M-23.59,379.785c.3,0,.608-.008.911-.008,2.99,0,2.974,0,2.788,2.977-.034.549-.207.724-.738.707-.986-.032-1.974-.014-2.961-.016l-.144-.159a5.1,5.1,0,0,1,.159-3.517Z" transform="translate(7.271 0.252)" fill="#85c1ee"/>
    <path id="Trazado_7155" data-name="Trazado 7155" d="M-23.367,383.225c0,.3.006.608.008.911,0,2.99,0,2.974-2.979,2.787-.548-.034-.723-.207-.705-.737.032-.986.013-1.975.015-2.962l-.015.016a4.262,4.262,0,0,1,3.692,0Z" transform="translate(7.049 0.472)" fill="#85c1ee"/>
    <path id="Trazado_7156" data-name="Trazado 7156" d="M-121.344,472.629c0-.3-.007-.608-.007-.911,0-2.99,0-2.973,2.978-2.787.549.034.723.207.706.737-.032.986-.014,1.975-.016,2.962-.05.045-.1.09-.149.136a6.783,6.783,0,0,1-3.364,0Z" transform="translate(0.253 6.672)" fill="#85c1ee"/>
    <path id="Trazado_7157" data-name="Trazado 7157" d="M-121.092,476.037c-.3,0-.608.008-.911.009-2.99,0-2.973,0-2.787-2.979.034-.548.208-.721.738-.705.986.032,1.974.014,2.961.016l-.016-.016a5.109,5.109,0,0,1,.161,3.519C-120.994,475.932-121.044,475.985-121.092,476.037Z" transform="translate(0 6.924)" fill="#85c1ee"/>
    <path id="Trazado_7158" data-name="Trazado 7158" d="M-117.9,472.377c.3,0,.608-.008.911-.008,2.99,0,2.973,0,2.787,2.977-.034.549-.207.724-.737.706-.986-.032-1.975-.014-2.962-.016-.047-.053-.094-.106-.143-.159a5.088,5.088,0,0,1,.159-3.517Z" transform="translate(0.474 6.925)" fill="#85c1ee"/>
    <path id="Trazado_7159" data-name="Trazado 7159" d="M-117.683,475.817c0,.3.008.608.008.911,0,2.99,0,2.974-2.978,2.787-.549-.034-.723-.207-.705-.736.031-.986.013-1.975.015-2.962l-.016.016a4.258,4.258,0,0,1,3.693,0Z" transform="translate(0.252 7.144)" fill="#85c1ee"/>
    <path id="Trazado_7160" data-name="Trazado 7160" d="M-72.707,457.887c0,3.025-.026,6.051.017,9.075.012.8-.107,1.122-1.031,1.107-3.714-.061-7.429-.024-11.144-.028-.436,0-.868.122-1-.587-.842-4.552-3.226-8.4-5.792-12.114-3.721-5.386-7.393-10.783-9.931-16.864-3.049-7.305-5.459-14.78-5.932-22.742a31.479,31.479,0,0,1,10.554-26.082c6.573-6.076,14.486-9.087,23.367-9.708.685-.047.919.028.91.79q-.064,5.57,0,11.143c.009.743-.3.882-.92.949-1.63.176-2,.542-2.331,2.154-.1.487-.178.981-.312,1.458a1.143,1.143,0,0,1-1.883.474,1.778,1.778,0,0,1-.149-.175c-2.416-2.936-2.687-2.223-5.271-.956a35.585,35.585,0,0,0-3.605,2.231,1.99,1.99,0,0,0-.847,2.5c.172.547.352,1.091.554,1.626a1.016,1.016,0,0,1-.287,1.218,1.067,1.067,0,0,1-1.223.272c-3.263-.962-3.253-.946-5.141,1.835a35.942,35.942,0,0,0-2.025,3.723,1.861,1.861,0,0,0,.44,2.393c.472.448.95.894,1.458,1.3a.941.941,0,0,1,.337,1.107,1.008,1.008,0,0,1-.89.875,20.3,20.3,0,0,0-2.027.386,1.949,1.949,0,0,0-1.634,2.058c0,1.915-.016,3.829,0,5.744a2,2,0,0,0,1.784,2.173c.6.134,1.2.227,1.8.332a.993.993,0,0,1,.947.815,1.035,1.035,0,0,1-.362,1.2c-3.276,2.593-2.127,2.964-.964,5.445a29.164,29.164,0,0,0,2.182,3.5,1.981,1.981,0,0,0,2.5.817c.545-.177,1.094-.345,1.626-.554a1,1,0,0,1,1.21.319,1.007,1.007,0,0,1,.28,1.116c-.925,3.4-.935,3.427,2.033,5.352,1.086.7,2.272,1.255,3.419,1.863a1.956,1.956,0,0,0,2.579-.5c.309-.34.62-.679.919-1.027.372-.435.674-.872,1.415-.68.725.189.829.673.918,1.255.063.415.162.824.247,1.237a2.013,2.013,0,0,0,2.109,1.863c.894-.009,1.12.372,1.1,1.24C-72.742,451.836-72.707,454.862-72.707,457.887Z" transform="translate(1.245 0.264)" fill="#85c1ee"/>
    <path id="Trazado_7161" data-name="Trazado 7161" d="M-73.567,397.025c0,1.53-.032,3.061.015,4.591.02.7-.161.959-.911,1.085a17.107,17.107,0,0,0-13.8,16.826c.223,7.382,6.413,14.491,13.752,15.714.815.136.976.434.953,1.164-.047,1.518-.014,3.039-.108,4.626-.134-1.6-1.139-2.19-2.525-2.362a1.871,1.871,0,0,1-.552-.149c-2.1-.965-3.838-.674-5.085,1.416-.286.479-.626.373-1.057.143-2.118-1.135-2.153-1.132-1.435-3.464a2.063,2.063,0,0,0-.567-2.29c-.658-.64-1.34-1.261-1.941-1.951a2.271,2.271,0,0,0-2.757-.759c-.631.234-1.461.833-1.909.477a8.584,8.584,0,0,1-1.5-2.263.417.417,0,0,1,.125-.6,9.276,9.276,0,0,1,.777-.68,2.665,2.665,0,0,0,1.062-3.671,1.576,1.576,0,0,1-.176-.544c-.153-2.318-1.336-3.547-3.705-3.584-.546-.009-.726-.328-.739-.9-.057-2.423-.085-2.437,2.29-2.945a2.151,2.151,0,0,0,1.794-1.7c.233-.924.448-1.857.746-2.762a2.379,2.379,0,0,0-.986-2.8c-.458-.38-1.332-.748-1.2-1.259a9.786,9.786,0,0,1,1.351-2.5c.185-.3.5-.069.734,0,.551.155,1.1.326,1.637.522a2,2,0,0,0,2.272-.64c.64-.657,1.263-1.336,1.945-1.947a2.223,2.223,0,0,0,.7-2.671c-.234-.636-.829-1.483-.493-1.911a8.578,8.578,0,0,1,2.252-1.508c.3-.2.493-.047.683.172.326.375.673.733.981,1.124a2.3,2.3,0,0,0,2.847.814,10.75,10.75,0,0,1,1.979-.564A2.636,2.636,0,0,0-73.567,397.025Z" transform="translate(2.104 1.496)" fill="#fff"/>
    <path id="Trazado_7162" data-name="Trazado 7162" d="M-71.621,418.089c0-2.756.021-5.514-.015-8.271-.01-.684.142-.918.877-.909q5.572.06,11.144,0c.735-.009.88.226.877.909q-.039,8.328,0,16.658c0,.631-.143.854-.817.849q-5.63-.048-11.26,0c-.674.005-.824-.217-.818-.849C-71.6,423.681-71.621,420.885-71.621,418.089Z" transform="translate(3.835 2.352)" fill="#fff"/>
    <path id="Trazado_7163" data-name="Trazado 7163" d="M-74.315,418.3c0,3.939-.017,7.878.015,11.815.006.769-.11.946-.937.743a13.1,13.1,0,0,1-9.883-14.688c.737-4.792,5.286-9.443,10.121-10.41.78-.155.688.249.687.725Q-74.32,412.393-74.315,418.3Z" transform="translate(2.853 2.123)" fill="#c4e1f7"/>
    <path id="Trazado_7164" data-name="Trazado 7164" d="M-72.047,476.082q-7.4,0-14.805,0a5.449,5.449,0,0,1-1.258-.059,1.781,1.781,0,0,1-1.489-1.9,1.731,1.731,0,0,1,1.537-1.737,5.48,5.48,0,0,1,1.029-.044q14.864,0,29.727,0a4.98,4.98,0,0,1,1.029.047,1.78,1.78,0,0,1,1.543,1.859,1.72,1.72,0,0,1-1.592,1.8,8.759,8.759,0,0,1-1.374.039Q-64.873,476.084-72.047,476.082Z" transform="translate(2.541 6.923)" fill="#2975ff"/>
    <path id="Trazado_7165" data-name="Trazado 7165" d="M-72.2,465.542q7.121,0,14.24,0c1.828,0,2.731.58,2.739,1.749s-1.017,1.857-2.8,1.857q-14.183,0-28.366,0c-.192,0-.384.007-.575,0a2.085,2.085,0,0,1-2.219-1.874c0-1.054.856-1.725,2.279-1.727Q-79.545,465.532-72.2,465.542Z" transform="translate(2.571 6.433)" fill="#2975ff"/>
    <path id="Trazado_7166" data-name="Trazado 7166" d="M-61.2,392.033a1.522,1.522,0,0,1-1.577,1.592,1.936,1.936,0,0,1-1.97-1.7,1.958,1.958,0,0,1,1.833-1.847A1.93,1.93,0,0,1-61.2,392.033Z" transform="translate(4.332 0.995)" fill="#85c1ee"/>
    <path id="Trazado_7167" data-name="Trazado 7167" d="M-40.688,424.582a1.949,1.949,0,0,1-1.675-2,1.517,1.517,0,0,1,1.616-1.55,1.919,1.919,0,0,1,1.931,1.737A1.965,1.965,0,0,1-40.688,424.582Z" transform="translate(5.945 3.226)" fill="#85c1ee"/>
    <path id="Trazado_7168" data-name="Trazado 7168" d="M-49.121,398.651a1.967,1.967,0,0,1,1.636,2.033,1.515,1.515,0,0,1-1.652,1.509,1.9,1.9,0,0,1-1.892-1.77A1.967,1.967,0,0,1-49.121,398.651Z" transform="translate(5.32 1.613)" fill="#85c1ee"/>
    <path id="Trazado_7169" data-name="Trazado 7169" d="M-57.773,443.51a1.513,1.513,0,0,1-1.612,1.553,1.92,1.92,0,0,1-1.934-1.732,1.963,1.963,0,0,1,1.869-1.812A1.946,1.946,0,0,1-57.773,443.51Z" transform="translate(4.579 4.702)" fill="#85c1ee"/>
  </g>
</svg>
