<svg xmlns="http://www.w3.org/2000/svg" width="99.224" height="109.696" viewBox="0 0 99.224 109.696">
  <g id="Grupo_7893" data-name="Grupo 7893" transform="translate(314.069 -542.385)">
    <path id="Trazado_7122" data-name="Trazado 7122" d="M-252.564,542.385c1.836.61,3.306,1.6,3.715,3.651a7.188,7.188,0,0,1,.143,1.379c.011,4.25.033,8.5,0,12.748a4.927,4.927,0,0,1-6.025,4.955c-2.113-.391-3.076-1.9-3.581-3.8a5.977,5.977,0,0,1-.239-2.143c-.486.043-.676.427-.938.678q-5.646,5.41-11.274,10.84c-2.264,2.175-4.112,2.444-6.87,1.023-1.266-.653-2.558-1.261-3.78-1.987-.663-.392-1.017-.258-1.524.254q-11.107,11.238-22.248,22.443c-1.582,1.6-3.335,2.43-5.574,1.606a4.9,4.9,0,0,1-2.149-7.809,12.314,12.314,0,0,1,.871-.944q12.334-12.435,24.672-24.867c2.414-2.432,4.174-2.712,7.188-1.154,1.328.686,2.668,1.35,3.983,2.059a.728.728,0,0,0,1.021-.087c3.016-2.934,6.049-5.85,9.18-8.871-.665-.094-1.214-.129-1.74-.255a4.371,4.371,0,0,1-3.672-4.146,5.062,5.062,0,0,1,2.916-5.143c.308-.14.712-.078.923-.426Z" fill="#17479d"/>
    <path id="Trazado_7123" data-name="Trazado 7123" d="M-309.569,631.141a1.772,1.772,0,0,1-1.977-1.541c-.574-2.424-1.349-4.8-1.762-7.264a10.042,10.042,0,0,1,5.887-10.5,122.447,122.447,0,0,1,12.688-3.759,39.715,39.715,0,0,0,8.109-3.487,1.023,1.023,0,0,0,.564-1.115c-.011-4.5-.028-9,0-13.5.022-3.473,1.831-6.009,5.018-6.664a18.136,18.136,0,0,1,7.338.008c3.118.653,4.966,3.217,5.028,6.574.03,1.641,0,3.283,0,5.129.965-.509,1.83-.942,2.672-1.419.432-.244.242-.71.243-1.076q.017-7.392,0-14.784a7.505,7.505,0,0,1,2.869-6.373,6.567,6.567,0,0,1,3.2-1.378,15.908,15.908,0,0,1,5.858.119c3.444.844,5.48,3.767,5.482,7.705q.011,15.963-.02,31.926c0,1.025.162,1.485,1.254,1.072a2.533,2.533,0,0,1,.633-.1c.787-.084,1.068-.434,1.066-1.3q-.051-23.516-.03-47.032a7.658,7.658,0,0,1,2.863-6.49,5.755,5.755,0,0,1,2.268-1.153,14.364,14.364,0,0,1,7.607.134c2.776.889,4.536,3.568,4.669,6.888.057,1.426.01,2.857.012,4.285A1.726,1.726,0,0,1-229.578,568a1.5,1.5,0,0,1-1.842-1.175,9.339,9.339,0,0,1-.22-2.867c-.011-.82.016-1.641-.009-2.461a3.523,3.523,0,0,0-3.306-3.555,19.412,19.412,0,0,0-3.527,0c-1.848.176-2.984,1.364-3.384,3.43a5.336,5.336,0,0,0-.108,1.6q-.006,21.968.033,43.934c0,.475-.241,1.135.276,1.375.459.214.929-.259,1.34-.523,2.679-1.715,5.245-3.591,7.785-5.5a2.211,2.211,0,0,0,.875-1.953c0-3.179-.024-6.358.008-9.537-.053-5.588-.024-11.174-.014-16.761a3.488,3.488,0,0,1,.373-1.759c.357-.622.772-1.236,1.67-.93,1.392.481,1.606.781,1.606,2.366q.006,12.156,0,24.314v1.283a14.687,14.687,0,0,1,3.891-1.651,7.406,7.406,0,0,1,8.26,3.891,7.108,7.108,0,0,1-1.325,9c-2.372,2.21-4.947,4.2-7.454,6.266-3.637,2.992-7.278,5.981-10.948,8.933-3.121,2.508-6.9,3.432-10.686,4.347-10.315,2.487-20.615,5.036-30.928,7.531-.741.179-.936.449-.859,1.211a9.681,9.681,0,0,1-7.173,10.624,84.177,84.177,0,0,1-11.14,2.533,9.818,9.818,0,0,1-11.248-7.312c-.706-2.463-1.281-4.964-1.955-7.437a1.864,1.864,0,0,1,1.04-2.471c1.153-.327,2,.191,2.369,1.6.6,2.279,1.211,4.557,1.784,6.844a6.943,6.943,0,0,0,1.594,3.227,6.042,6.042,0,0,0,5.77,2.073q5.216-.975,10.347-2.328A6.74,6.74,0,0,0-282,637.321c-.7-2.062-1.526-4.081-2.275-6.126q-3.473-9.306-6.97-18.6c-.75-2-.529-1.741-2.395-1.216-2.81.791-5.622,1.578-8.42,2.414-1.134.306-2.268.608-3.377,1a6.525,6.525,0,0,0-4.326,7.619c.425,2.167,1.154,4.26,1.609,6.419C-307.865,630.186-308.353,630.96-309.569,631.141Z" fill="#17479d"/>
    <path id="Trazado_7124" data-name="Trazado 7124" d="M-242.117,561.287a3.857,3.857,0,0,1,3.722-3.674c1.1-.048,2.209-.045,3.311,0a3.819,3.819,0,0,1,3.761,3.53c.121,1.594.051,3.2.086,4.8.03,1.375.353,1.756,1.661,2.052q-.028,1.661-.052,3.319c-1.395.478-1.609.773-1.611,2.359q-.009,7.917-.005,15.832c0,.425-.048.85-.073,1.275-.206.2-.309.488-.536.666a73.675,73.675,0,0,1-9.284,6.51c-.8.451-1.024.3-1.024-.58q0-17.941,0-35.881A.9.9,0,0,1-242.117,561.287Z" fill="#2975ff"/>
    <path id="Trazado_7125" data-name="Trazado 7125" d="M-284.061,631.1c.854,2.26,1.844,4.48,2.532,6.79a7.086,7.086,0,0,1-5.051,8.571c-3.454.871-6.941,1.626-10.438,2.309a6.3,6.3,0,0,1-7.206-4.2c-.856-2.639-1.467-5.357-2.189-8.04-.374-1.388-.744-1.7-2.132-1.789q-.511-1.8-1.024-3.6c1.266-.7,1.432-1.078,1.08-2.507-.535-2.177-1.142-4.34-1.6-6.534a6.687,6.687,0,0,1,3.83-7.29,19.784,19.784,0,0,1,4.177-1.259c.374,1.076-.11,2.107-.208,3.151a52.648,52.648,0,0,0-.356,5.443,7.82,7.82,0,0,0,7.753,7.808,38.185,38.185,0,0,1,9.872,1.058A2.9,2.9,0,0,0-284.061,631.1Z" fill="#7ac0dc"/>
    <path id="Trazado_7126" data-name="Trazado 7126" d="M-251.915,553.674c0,2.071.009,4.142,0,6.213-.007,1.335-.674,2.135-1.735,2.124s-1.694-.8-1.7-2.156c-.009-1.392-.015-2.785,0-4.177a1.821,1.821,0,0,0-.994-1.953c-.875-.39-1.494.054-2.09.628q-7.251,6.987-14.511,13.964c-1.339,1.287-1.646,1.329-3.281.486-1.678-.865-3.352-1.736-5.032-2.6-1.382-.709-1.811-.642-2.917.472q-11.549,11.629-23.093,23.263c-.227.228-.447.463-.689.674a1.7,1.7,0,0,1-2.32.041,1.674,1.674,0,0,1-.19-2.319,6.506,6.506,0,0,1,.708-.8q12.448-12.547,24.9-25.09c1.2-1.206,1.439-1.245,2.975-.457,1.807.926,3.62,1.84,5.408,2.8a1.98,1.98,0,0,0,2.6-.367q6.344-6.153,12.726-12.267c.593-.571,1.066-1.168.7-2.062-.378-.924-1.149-1.065-2.021-1.053-1.25.017-2.5.02-3.75,0s-2.014-.711-1.984-1.758a1.757,1.757,0,0,1,1.964-1.68q6.267-.024,12.533,0c1.3.005,1.773.511,1.784,1.853C-251.9,549.532-251.915,551.6-251.915,553.674Z" fill="#fff"/>
    <path id="Trazado_7127" data-name="Trazado 7127" d="M-284.927,607.369q6.027-3.228,12.054-6.453c3.647-1.944,7.31-3.856,10.945-5.819a3.252,3.252,0,0,1,3.89.1,3.3,3.3,0,0,1,.975,3.774,12.7,12.7,0,0,1-4.564,7.04c-.871.681-1.732,1.379-2.544,2.128a3.3,3.3,0,0,0-.9,3.721,3.167,3.167,0,0,0,3.11,2.357c5.452-.041,10.928.556,16.349-.437a18.868,18.868,0,0,0,7.456-3.332c4.2-2.958,8.394-5.924,12.611-8.857a4.5,4.5,0,0,1,6.705,1.2c1.294,1.938.8,4.381-1.348,6.158q-8.332,6.9-16.713,13.737a17.743,17.743,0,0,1-7.238,3.529c-2.529.606-5.047,1.257-7.575,1.867-1.348.325-2.706.607-4.06.908a38.673,38.673,0,0,1-5.9-1.522c-4.27-1.168-8.518-2.418-12.782-3.606-5.528-1.539-8.37-5.514-9.836-10.74a23.48,23.48,0,0,1-.833-4.738A1.308,1.308,0,0,1-284.927,607.369Z" fill="#c4e1f7"/>
    <path id="Trazado_7128" data-name="Trazado 7128" d="M-284.061,631.1c-.065.457-.315.449-.692.334a28.412,28.412,0,0,0-9.671-1.143,8.406,8.406,0,0,1-8.4-6.5,12.883,12.883,0,0,1-.083-3.832,42.9,42.9,0,0,1,.831-6.41c3.278-.956,6.558-1.906,9.832-2.878.38-.113.561-.1.714.317Q-287.81,621.052-284.061,631.1Z" fill="#8dd6e7"/>
    <path id="Trazado_7129" data-name="Trazado 7129" d="M-284.927,607.369c.345,4.735,1.414,9.229,4.7,12.865a12.1,12.1,0,0,0,5.849,3.36q8.975,2.547,17.954,5.073c.229.065.507.073.653.323-3.481.874-6.961,1.757-10.445,2.619-4.077,1.008-8.164,1.981-12.234,3.015-.6.152-.782.029-.988-.524q-4.488-12.049-9.03-24.079c-.174-.461-.219-.756.321-1.008C-287.059,608.5-286,607.921-284.927,607.369Z" fill="#85c1ee"/>
    <path id="Trazado_7130" data-name="Trazado 7130" d="M-256.007,604.738A19.5,19.5,0,0,0-253.768,599a6.311,6.311,0,0,0-7.665-7.506c-1.075.263-1.12-.067-1.112-.951.038-4.25.011-8.5.019-12.751.005-3.182,1.561-4.732,4.732-4.736.786,0,1.574-.033,2.357.022a3.878,3.878,0,0,1,3.754,3.558,2.547,2.547,0,0,1,.077,1.056c0,8.159-.013,16.318.025,24.477a1.759,1.759,0,0,1-1.178,1.891,22.933,22.933,0,0,1-2.3.865C-255.362,605.012-255.8,605.314-256.007,604.738Z" fill="#aaeaf3"/>
    <path id="Trazado_7131" data-name="Trazado 7131" d="M-282.815,602.544c0-4.558-.045-8.909.023-13.259a3.066,3.066,0,0,1,3.079-2.965c1.461-.052,2.926-.04,4.389-.015a3.282,3.282,0,0,1,3.422,3.347c.058,2.175.011,4.354.022,6.531a.742.742,0,0,1-.4.781C-275.739,598.786-279.19,600.621-282.815,602.544Z" fill="#c4e1f7"/>
    <path id="Trazado_7132" data-name="Trazado 7132" d="M-242.117,561.287c.012,3.672.033,7.345.036,11.018q.007,12.252.007,24.5a2.258,2.258,0,0,0,.136,1.226,33.966,33.966,0,0,0,4.766-3c1.967-1.394,3.9-2.831,5.855-4.25q.036,5.191.077,10.385a.926.926,0,0,1-.414.81,96.3,96.3,0,0,1-9.649,6.734c-.664.382-.934.438-.933-.508q.031-23.04.016-46.081A6.589,6.589,0,0,1-242.117,561.287Z" fill="#2975ff"/>
    <path id="Trazado_7133" data-name="Trazado 7133" d="M-256.007,604.738a9.766,9.766,0,0,0,4.091-1.538c.382-.23.186-.73.186-1.1q.014-12.092.009-24.182c0-.427.025-.854.038-1.281a2.439,2.439,0,0,1,.138,1.259c0,10.664-.021,21.329.015,31.993,0,1.022-.31,1.235-1.258,1.214-2.781-.063-5.564-.025-8.346-.035-.34,0-.823.125-.961-.221-.152-.382.323-.571.586-.783A25.413,25.413,0,0,0-256.007,604.738Z" fill="#8dd6e7"/>
    <path id="Trazado_7134" data-name="Trazado 7134" d="M-294.012,644.885a6.3,6.3,0,0,1-6.366-6.272,6.367,6.367,0,0,1,6.3-6.371,6.421,6.421,0,0,1,6.337,6.361A6.353,6.353,0,0,1-294.012,644.885Z" fill="#17479d"/>
    <path id="Trazado_7135" data-name="Trazado 7135" d="M-294.047,641.672a3.077,3.077,0,0,1-3.117-3.1,3.132,3.132,0,0,1,3.133-3.113,3.176,3.176,0,0,1,3.082,3.077A3.115,3.115,0,0,1-294.047,641.672Z" fill="#c4e1f7"/>
  </g>
</svg>
