<svg xmlns="http://www.w3.org/2000/svg" width="19.768" height="19.769" viewBox="0 0 19.768 19.769">
  <path id="Icon_awesome-phone-alt" data-name="Icon awesome-phone-alt" d="M19.2,13.97,14.88,12.117a.927.927,0,0,0-1.081.266l-1.915,2.34A14.311,14.311,0,0,1,5.042,7.881l2.34-1.915a.924.924,0,0,0,.266-1.081L5.8.56A.933.933,0,0,0,4.734.024L.718.95a.927.927,0,0,0-.718.9A17.913,17.913,0,0,0,17.915,19.769a.927.927,0,0,0,.9-.718l.927-4.016A.938.938,0,0,0,19.2,13.97Z" transform="translate(0 0)" fill="#fff" opacity="0.85"/>
</svg>
