<svg xmlns="http://www.w3.org/2000/svg" width="28.164" height="22.531" viewBox="0 0 28.164 22.531">
  <path id="Icon_awesome-business-time" data-name="Icon awesome-business-time" d="M21.827,9.857a6.337,6.337,0,1,0,6.337,6.337A6.333,6.333,0,0,0,21.827,9.857Zm2.816,6.614a.429.429,0,0,1-.427.427H21.551a.429.429,0,0,1-.427-.427V13.1a.429.429,0,0,1,.427-.427H22.1a.429.429,0,0,1,.427.427V15.49h1.685a.429.429,0,0,1,.427.427ZM21.827,8.449c.238,0,.472.015.7.036V6.337a2.166,2.166,0,0,0-2.112-2.112H16.9V2.112A2.166,2.166,0,0,0,14.786,0H7.745A2.166,2.166,0,0,0,5.633,2.112V4.225H2.112A2.166,2.166,0,0,0,0,6.337V9.857H17.388A7.7,7.7,0,0,1,21.827,8.449ZM14.082,4.225H8.449V2.816h5.633Zm.3,9.857H9.153a.7.7,0,0,1-.7-.7V11.266H0V17.6a2.166,2.166,0,0,0,2.112,2.112H14.937a7.641,7.641,0,0,1-.555-5.633Z" fill="#fff" opacity="0.85"/>
</svg>
