<svg xmlns="http://www.w3.org/2000/svg" width="22.513" height="22.513" viewBox="0 0 22.513 22.513">
  <path id="Icon_open-magnifying-glass" data-name="Icon open-magnifying-glass" d="M9.761-.017a9.761,9.761,0,0,0,0,19.522,9.648,9.648,0,0,0,4.63-1.143,2.789,2.789,0,0,0,.363.363l2.789,2.789A2.845,2.845,0,1,0,21.558,17.5l-2.789-2.789a2.789,2.789,0,0,0-.446-.363,9.63,9.63,0,0,0,1.227-4.63A9.772,9.772,0,0,0,9.789-.045Zm0,2.789a6.939,6.939,0,0,1,6.972,6.972,6.993,6.993,0,0,1-1.841,4.8l-.084.084a2.789,2.789,0,0,0-.363.363,6.979,6.979,0,0,1-4.713,1.757,6.972,6.972,0,1,1,0-13.945Z" transform="translate(0 0.045)" fill="#b5b5b5"/>
</svg>
