<svg xmlns="http://www.w3.org/2000/svg" width="22.803" height="15.787" viewBox="0 0 22.803 15.787">
  <g id="Icon_ionic-ios-mail" data-name="Icon ionic-ios-mail" transform="translate(0.001 -0.001)" opacity="0.85">
    <path id="Trazado_6893" data-name="Trazado 6893" d="M25.991,10.348l-5.9,6.008a.106.106,0,0,0,0,.153l4.128,4.4a.711.711,0,0,1,0,1.009.715.715,0,0,1-1.009,0L19.1,17.534a.112.112,0,0,0-.159,0l-1,1.02a4.413,4.413,0,0,1-3.146,1.327,4.5,4.5,0,0,1-3.212-1.365l-.965-.981a.112.112,0,0,0-.159,0l-4.111,4.38a.715.715,0,0,1-1.009,0,.711.711,0,0,1,0-1.009l4.128-4.4a.117.117,0,0,0,0-.153l-5.9-6.008a.108.108,0,0,0-.186.077V22.446A1.759,1.759,0,0,0,5.129,24.2H24.424a1.759,1.759,0,0,0,1.754-1.754V10.424A.11.11,0,0,0,25.991,10.348Z" transform="translate(-3.376 -8.412)" fill="#fff"/>
    <path id="Trazado_6894" data-name="Trazado 6894" d="M14.964,17.912a2.98,2.98,0,0,0,2.143-.9l8.6-8.754a1.723,1.723,0,0,0-1.085-.384H5.311a1.711,1.711,0,0,0-1.085.384l8.6,8.754A2.98,2.98,0,0,0,14.964,17.912Z" transform="translate(-3.563 -7.874)" fill="#fff"/>
  </g>
</svg>
