<svg id="Componente_220_32" data-name="Componente 220 – 32" xmlns="http://www.w3.org/2000/svg" width="45" height="45" viewBox="0 0 45 45">
  <path id="Trazado_7630" data-name="Trazado 7630" d="M7406.585-239.191h-35a5,5,0,0,0-5,5v35a5,5,0,0,0,5,5h35a5,5,0,0,0,5-5v-35A5,5,0,0,0,7406.585-239.191Zm-26.364,38.245c0,1.391-.352,1.729-1.779,1.733q-1.941.007-3.881,0c-1.476,0-1.779-.311-1.785-1.831-.008-1.858,0-3.717,0-5.576q0-7.069,0-14.138c0-1.595.316-1.9,1.932-1.906,1.228,0,2.454,0,3.681,0,1.477.006,1.833.354,1.833,1.8q.006,5.028,0,10.056Q7380.223-205.875,7380.221-200.946Zm-3.827-23.669a4.837,4.837,0,0,1-4.682-4.948,4.761,4.761,0,0,1,4.889-4.609,4.725,4.725,0,0,1,4.667,4.817A4.8,4.8,0,0,1,7376.394-224.615Zm30.059,23.783c0,1.357-.271,1.614-1.649,1.618q-2.142.006-4.284,0c-1.354,0-1.664-.326-1.665-1.725q0-5.235,0-10.47a8.44,8.44,0,0,0-.368-2.749,3.277,3.277,0,0,0-2.852-2.427,3.56,3.56,0,0,0-3.751,1.71,7.333,7.333,0,0,0-.972,3.912q0,5.036,0,10.071c0,1.42-.267,1.676-1.691,1.679-1.461,0-2.923-.007-4.385,0a1.181,1.181,0,0,1-1.339-1.348q0-10.37,0-20.741a1.208,1.208,0,0,1,1.353-1.356c1.5-.009,2.989-.014,4.483,0,1.275.011,1.559.315,1.584,1.614.007.319.031.637.052,1.086,2.832-3.354,6.371-3.559,10.081-2.562,2.858.769,4.21,3.049,4.9,5.774a23.744,23.744,0,0,1,.51,5.742C7406.466-207.613,7406.459-204.222,7406.453-200.832Z" transform="translate(-7366.585 239.191)" fill="#17479d"/>
</svg>
